<svg width="164" height="38" viewBox="0 0 164 38" fill="none" xmlns="http://www.w3.org/2000/svg">
<path d="M17.3278 8.29312L19.7801 15.0376H14.8755L17.3278 8.29312Z" fill="white"/>
<path d="M55.2094 18.8289C54.1464 18.8289 53.2528 18.4667 52.528 17.7422C51.8035 17.0178 51.4409 16.1082 51.4409 15.0134C51.4409 13.9187 51.8035 13.0091 52.528 12.2846C53.2528 11.5602 54.1464 11.198 55.2094 11.198C56.2721 11.198 57.166 11.5602 57.8905 12.2846C58.6154 13.0091 58.9776 13.9187 58.9776 15.0134C58.9776 16.1082 58.6154 17.0178 57.8905 17.7422C57.166 18.4667 56.2721 18.8289 55.2094 18.8289Z" fill="white"/>
<path d="M67.0641 17.7905C67.7886 18.515 68.6987 18.8772 69.7937 18.8772C70.8887 18.8772 71.7987 18.515 72.5233 17.7905C73.2481 17.0499 73.6103 16.1243 73.6103 15.0134C73.6103 13.9026 73.2481 12.9849 72.5233 12.2605C71.7987 11.5199 70.8887 11.1497 69.7937 11.1497C68.6987 11.1497 67.7886 11.5199 67.0641 12.2605C66.3393 12.9849 65.9771 13.9026 65.9771 15.0134C65.9771 16.1243 66.3393 17.0499 67.0641 17.7905Z" fill="white"/>
<path d="M145.504 17.7905C146.228 18.515 147.138 18.8772 148.233 18.8772C149.328 18.8772 150.238 18.515 150.963 17.7905C151.687 17.0499 152.05 16.1243 152.05 15.0134C152.05 13.9026 151.687 12.9849 150.963 12.2605C150.238 11.5199 149.328 11.1497 148.233 11.1497C147.138 11.1497 146.228 11.5199 145.504 12.2605C144.779 12.9849 144.417 13.9026 144.417 15.0134C144.417 16.1243 144.779 17.0499 145.504 17.7905Z" fill="white"/>
<path fill-rule="evenodd" clip-rule="evenodd" d="M0.858398 0H163.858V29.8543H25.0628L25.1246 29.9159L17.3873 37.6199L9.61692 29.883L9.64571 29.8543H0.858398V0ZM20.6454 17.6456L22.1229 21.0506H25.1182L18.7701 5.00448H15.885L9.53785 21.0506H12.5573L14.0097 17.6456H20.6454ZM50.6922 19.5292C51.9319 20.7528 53.4376 21.3645 55.2093 21.3645C56.9968 21.3645 58.5025 20.7528 59.7264 19.5292C60.9664 18.3057 61.5864 16.8004 61.5864 15.0134C61.5864 13.2264 60.9664 11.7212 59.7264 10.4977C58.5025 9.27413 56.9968 8.66235 55.2093 8.66235C53.4376 8.66235 51.9319 9.27413 50.6922 10.4977C49.4522 11.7212 48.8322 13.2264 48.8322 15.0134C48.8322 16.8004 49.4522 18.3057 50.6922 19.5292ZM37.0797 8.9763V21.0506H34.4711V11.4877H30.4371V15.9794C30.4371 17.8952 30.0184 19.2556 29.181 20.0605C28.3436 20.8654 27.1519 21.1955 25.606 21.0506V18.6116C26.3468 18.7404 26.9023 18.5874 27.2727 18.1527C27.6431 17.7181 27.8283 16.9534 27.8283 15.8586V8.9763H37.0797ZM48.2118 8.9763V11.4877H42.7287V21.0506H40.1197V8.9763H48.2118ZM70.2044 8.66235C71.863 8.66235 73.28 9.28217 74.4558 10.5218C75.6312 11.7453 76.2192 13.2425 76.2192 15.0134C76.2192 16.8004 75.6312 18.3057 74.4558 19.5292C73.28 20.7528 71.863 21.3645 70.2044 21.3645C68.3684 21.3645 66.9593 20.6884 65.977 19.336V25.0224H63.3681V8.9763H65.977V10.715C66.9593 9.34655 68.3684 8.66235 70.2044 8.66235ZM88.7559 8.9763H86.7512L80.5669 16.6314V8.9763H78.0064V21.0506H80.0115L86.1954 13.3713V21.0506H88.7559V8.9763ZM101.01 8.9763V11.4877H97.0732V21.0506H94.4643V11.4877H90.5026V8.9763H101.01ZM112.558 21.0506H115.095V8.9763H112.438L108.935 14.5546L105.433 8.9763H102.776V21.0506H105.312V13.1298L108.766 18.6357H109.08L112.558 13.1057V21.0506ZM126.853 8.9763H128.858V21.0506H126.297V13.3713L120.114 21.0506H118.109V8.9763H120.669V16.6314L126.853 8.9763ZM139.157 21.0506H142.273L136.766 14.8927L142.08 8.9763H138.891L134.205 14.3131V8.9763H131.596V21.0506H134.205V15.4723L139.157 21.0506ZM152.05 8.9763H154.658V21.0506H152.05V19.3119C151.067 20.6803 149.658 21.3645 147.822 21.3645C146.164 21.3645 144.746 20.7528 143.571 19.5292C142.395 18.2896 141.807 16.7843 141.807 15.0134C141.807 13.2264 142.395 11.7212 143.571 10.4977C144.746 9.27413 146.164 8.66235 147.822 8.66235C149.658 8.66235 151.067 9.33851 152.05 10.6908V8.9763Z" fill="white"/>
</svg>
