<svg width="152" height="35" viewBox="0 0 152 35" fill="none" xmlns="http://www.w3.org/2000/svg">
<path d="M15.3225 7.71555L17.604 13.9903H13.041L15.3225 7.71555Z" fill="#8D30B9"/>
<path d="M50.5666 17.5176C49.5776 17.5176 48.7463 17.1806 48.0719 16.5066C47.3979 15.8326 47.0605 14.9864 47.0605 13.9679C47.0605 12.9494 47.3979 12.1031 48.0719 11.4291C48.7463 10.7551 49.5776 10.4181 50.5666 10.4181C51.5553 10.4181 52.3869 10.7551 53.061 11.4291C53.7353 12.1031 54.0724 12.9494 54.0724 13.9679C54.0724 14.9864 53.7353 15.8326 53.061 16.5066C52.3869 17.1806 51.5553 17.5176 50.5666 17.5176Z" fill="#8D30B9"/>
<path d="M61.5953 16.5516C62.2694 17.2256 63.1161 17.5626 64.1348 17.5626C65.1536 17.5626 66.0002 17.2256 66.6743 16.5516C67.3486 15.8626 67.6857 15.0014 67.6857 13.9679C67.6857 12.9344 67.3486 12.0807 66.6743 11.4067C66.0002 10.7177 65.1536 10.3732 64.1348 10.3732C63.1161 10.3732 62.2694 10.7177 61.5953 11.4067C60.921 12.0807 60.584 12.9344 60.584 13.9679C60.584 15.0014 60.921 15.8626 61.5953 16.5516Z" fill="#8D30B9"/>
<path d="M134.572 16.5516C135.246 17.2256 136.093 17.5626 137.111 17.5626C138.13 17.5626 138.977 17.2256 139.651 16.5516C140.325 15.8626 140.662 15.0014 140.662 13.9679C140.662 12.9344 140.325 12.0807 139.651 11.4067C138.977 10.7177 138.13 10.3732 137.111 10.3732C136.093 10.3732 135.246 10.7177 134.572 11.4067C133.898 12.0807 133.561 12.9344 133.561 13.9679C133.561 15.0014 133.898 15.8626 134.572 16.5516Z" fill="#8D30B9"/>
<path fill-rule="evenodd" clip-rule="evenodd" d="M0 0H151.648V27.7752H22.5188L22.5763 27.8325L15.3778 35L8.14856 27.8019L8.17534 27.7752H0V0ZM18.409 16.4167L19.7836 19.5846H22.5703L16.6643 4.65596H13.9801L8.075 19.5846H10.8842L12.2354 16.4167H18.409ZM46.3633 18.1692C47.5166 19.3075 48.9175 19.8766 50.5658 19.8766C52.2288 19.8766 53.6296 19.3075 54.7683 18.1692C55.9219 17.0309 56.4988 15.6304 56.4988 13.9679C56.4988 12.3053 55.9219 10.9049 54.7683 9.76658C53.6296 8.62826 52.2288 8.05909 50.5658 8.05909C48.9175 8.05909 47.5166 8.62826 46.3633 9.76658C45.2096 10.9049 44.6328 12.3053 44.6328 13.9679C44.6328 15.6304 45.2096 17.0309 46.3633 18.1692ZM33.6988 8.35117V19.5846H31.2718V10.6877H27.5188V14.8665C27.5188 16.6489 27.1292 17.9146 26.3502 18.6634C25.5711 19.4123 24.4624 19.7194 23.0241 19.5846V17.3154C23.7133 17.4352 24.2302 17.293 24.5748 16.8885C24.9194 16.4842 25.0916 15.7727 25.0916 14.7542V8.35117H33.6988ZM44.0557 8.35117V10.6877H38.9543V19.5846H36.5271V8.35117H44.0557ZM64.5166 8.05909C66.0597 8.05909 67.378 8.63574 68.4719 9.78905C69.5655 10.9274 70.1125 12.3203 70.1125 13.9679C70.1125 15.6304 69.5655 17.0309 68.4719 18.1692C67.378 19.3075 66.0597 19.8766 64.5166 19.8766C62.8085 19.8766 61.4975 19.2476 60.5836 17.9894V23.2798H58.1564V8.35117H60.5836V9.96876C61.4975 8.69564 62.8085 8.05909 64.5166 8.05909ZM81.7761 8.35117H79.911L74.1574 15.4731V8.35117H71.7753V19.5846H73.6407L79.394 12.4401V19.5846H81.7761V8.35117ZM93.1773 8.35117V10.6877H89.5142V19.5846H87.087V10.6877H83.4012V8.35117H93.1773ZM103.921 19.5846H106.281V8.35117H103.809L100.55 13.541L97.2916 8.35117H94.8196V19.5846H97.1791V12.2155L100.393 17.3379H100.685L103.921 12.193V19.5846ZM117.22 8.35117H119.085V19.5846H116.703V12.4401L110.95 19.5846H109.085V8.35117H111.467V15.4731L117.22 8.35117ZM128.667 19.5846H131.566L126.442 13.8555L131.386 8.35117H128.42L124.06 13.3163V8.35117H121.633V19.5846H124.06V14.3947L128.667 19.5846ZM140.662 8.35117H143.089V19.5846H140.662V17.967C139.748 19.2401 138.437 19.8766 136.729 19.8766C135.186 19.8766 133.867 19.3075 132.774 18.1692C131.68 17.0159 131.133 15.6154 131.133 13.9679C131.133 12.3053 131.68 10.9049 132.774 9.76658C133.867 8.62826 135.186 8.05909 136.729 8.05909C138.437 8.05909 139.748 8.68816 140.662 9.94629V8.35117Z" fill="#8D30B9"/>
</svg>
