<svg width="76" height="86" viewBox="0 0 76 86" fill="none" xmlns="http://www.w3.org/2000/svg">
<path d="M68.0615 64.3471C67.974 64.3471 67.8872 64.3308 67.8056 64.2991L63.8117 62.7442C63.7028 62.7017 63.6063 62.6328 63.5307 62.5437C63.4551 62.4546 63.4028 62.3481 63.3786 62.2338C63.3544 62.1195 63.3589 62.001 63.3919 61.8889C63.4249 61.7768 63.4852 61.6747 63.5675 61.5917C63.9804 61.1735 73.5946 51.169 65.2451 35.3998C65.1582 35.2347 65.1404 35.0419 65.1955 34.8637C65.2506 34.6854 65.3741 34.5363 65.539 34.449C65.7039 34.3618 65.8967 34.3434 66.075 34.3981C66.2534 34.4528 66.4028 34.576 66.4905 34.7406C73.9891 48.9035 67.4749 58.98 65.2468 61.791L68.3175 62.9861C68.4705 63.0458 68.5977 63.1572 68.6773 63.3008C68.7569 63.4444 68.7839 63.6113 68.7535 63.7727C68.7232 63.934 68.6374 64.0797 68.5111 64.1846C68.3848 64.2895 68.2257 64.347 68.0615 64.3471Z" fill="black"/>
<path d="M32.8633 70.248C32.6944 70.248 32.5312 70.1874 32.4033 70.0772C32.2754 69.967 32.1913 69.8145 32.1664 69.6475C32.1415 69.4805 32.1774 69.3101 32.2676 69.1674C32.3577 69.0246 32.4962 68.919 32.6577 68.8698C35.2778 68.0693 37.6284 67.5014 39.7022 66.9999C44.2567 65.8991 47.2662 65.1717 48.2674 63.1936C49.115 61.52 48.6325 58.714 46.7014 54.0953C46.6653 54.0099 46.6465 53.9183 46.6459 53.8256C46.6454 53.7329 46.6631 53.641 46.6981 53.5552C46.7331 53.4694 46.7847 53.3914 46.85 53.3256C46.9152 53.2598 46.9928 53.2075 47.0783 53.1717C47.1638 53.136 47.2555 53.1174 47.3482 53.1172C47.4409 53.1169 47.5327 53.135 47.6183 53.1703C47.704 53.2056 47.7819 53.2575 47.8475 53.323C47.913 53.3885 47.9651 53.4662 48.0005 53.5519C50.1339 58.6533 50.5896 61.7273 49.5246 63.8302C48.2288 66.3883 44.9684 67.1764 40.0328 68.3694C37.9784 68.8662 35.6495 69.4291 33.0689 70.2172C33.0023 70.2376 32.933 70.248 32.8633 70.248Z" fill="black"/>
<path d="M33.3222 70.6332C34.0987 73.0749 34.1241 79.2914 31.3607 81.5366L31.128 81.8863C31.128 81.8863 25.9529 87.3665 24.0236 81.2995C23.3149 79.0711 20.4936 71.3801 20.8692 70.5246C21.9692 68.0195 27.0021 68.6607 27.9041 67.9969C31.3525 65.4588 32.9544 69.4768 33.3222 70.6332Z" fill="white"/>
<path d="M26.9303 84.8604C26.6925 84.8611 26.4555 84.8349 26.2236 84.7824C24.9136 84.4834 23.9476 83.3834 23.3526 81.5133C23.1973 81.0253 22.9397 80.2734 22.6376 79.3888C20.4262 72.9286 19.9076 70.9623 20.2248 70.2414C21.1287 68.1834 23.883 67.8957 25.8947 67.6855C26.4358 67.658 26.9723 67.5706 27.4942 67.4249C27.957 67.0161 28.5137 66.728 29.1148 66.5863C29.7158 66.4446 30.3426 66.4537 30.9393 66.6127C32.7932 67.2147 33.6928 69.4756 33.9941 70.4197C34.8333 73.0606 34.8375 79.4958 31.8901 82.0122L31.7147 82.2766C31.6927 82.31 31.6677 82.3413 31.6401 82.3702C31.5351 82.4816 29.2591 84.8604 26.9303 84.8604ZM21.5382 70.7571C21.4853 71.6727 23.1596 76.5655 23.9703 78.9325C24.2774 79.8292 24.5376 80.5915 24.6954 81.0862C25.1284 82.4472 25.7478 83.2288 26.5375 83.409C27.9935 83.7399 29.9028 82.1413 30.5759 81.445L30.7739 81.1468C30.8134 81.0877 30.8614 81.0349 30.9166 80.9901C33.3227 79.0349 33.4091 73.2301 32.6513 70.8469C32.2736 69.6621 31.5116 68.2799 30.5046 67.9528C30.1185 67.8721 29.7186 67.8856 29.3388 67.992C28.959 68.0985 28.6105 68.2948 28.3226 68.5644C27.6129 68.9128 26.8321 69.0916 26.0415 69.0868C24.3949 69.2587 22.1492 69.4932 21.5382 70.7571Z" fill="black"/>
<path d="M31.1273 82.5905C30.9709 82.5903 30.8191 82.5381 30.6957 82.4421C30.5724 82.3461 30.4844 82.2117 30.4458 82.0603L27.0234 68.6657C27.0002 68.576 26.9949 68.4826 27.0079 68.3909C27.0209 68.2991 27.0518 68.2109 27.0989 68.1311C27.1461 68.0513 27.2085 67.9816 27.2826 67.926C27.3567 67.8704 27.4411 67.83 27.5308 67.8071C27.6206 67.7841 27.714 67.7791 27.8057 67.7924C27.8974 67.8056 27.9856 67.8368 28.0653 67.8842C28.1449 67.9315 28.2144 67.9942 28.2698 68.0684C28.3251 68.1427 28.3653 68.2272 28.388 68.317L31.8104 81.7116C31.8333 81.8012 31.8384 81.8945 31.8253 81.986C31.8122 82.0776 31.7812 82.1656 31.734 82.2452C31.6869 82.3248 31.6245 82.3943 31.5505 82.4497C31.4765 82.5052 31.3923 82.5456 31.3027 82.5685C31.2453 82.5831 31.1864 82.5905 31.1273 82.5905Z" fill="black"/>
<path d="M40.2688 84.8885C42.4232 85.0234 44.5839 85.0234 46.7383 84.8885C48.2855 84.7921 49.3952 83.6878 49.2248 82.5128C49.0781 81.4338 48.9311 80.3547 48.784 79.2754C48.6647 78.6917 48.3336 78.1728 47.8546 77.8186C47.3756 77.4644 46.7825 77.2999 46.1895 77.3568C44.4006 77.4686 42.6065 77.4686 40.8177 77.3568C40.2246 77.2997 39.6314 77.4641 39.1523 77.8183C38.6732 78.1726 38.3422 78.6916 38.2231 79.2754C38.0763 80.3553 37.9294 81.4344 37.7823 82.5128C37.6096 83.6827 38.723 84.7912 40.2688 84.8885Z" fill="white"/>
<path d="M43.5042 85.6679C42.409 85.6679 41.3138 85.6339 40.2261 85.5657C39.7369 85.5461 39.2571 85.4258 38.8165 85.2123C38.3759 84.9988 37.9841 84.6967 37.6656 84.3249C37.4446 84.0628 37.2811 83.7573 37.1855 83.4281C37.09 83.0988 37.0645 82.7532 37.1109 82.4136L37.5506 79.1846C37.6942 78.4315 38.1121 77.7584 38.7234 77.2957C39.3347 76.8329 40.0959 76.6134 40.8597 76.6795C42.6207 76.789 44.3868 76.789 46.1477 76.6795C46.9098 76.6137 47.6693 76.8322 48.28 77.2929C48.8906 77.7536 49.3092 78.4239 49.4552 79.1748L49.8974 82.4213C49.9425 82.7611 49.916 83.1066 49.8196 83.4355C49.7232 83.7644 49.559 84.0695 49.3377 84.3312C49.0192 84.7017 48.6277 85.0025 48.1877 85.2149C47.7478 85.4274 47.2687 85.5468 46.7805 85.5658C45.6937 85.6337 44.5985 85.6679 43.5042 85.6679ZM40.3117 84.2112C42.4377 84.3438 44.5698 84.3438 46.6958 84.2112C46.9965 84.2019 47.2922 84.132 47.5652 84.0055C47.8382 83.8791 48.0829 83.6988 48.2844 83.4754C48.387 83.3578 48.464 83.2202 48.5104 83.0712C48.5567 82.9222 48.5715 82.7652 48.5538 82.6102L48.1116 79.3674C48.0217 78.9498 47.7785 78.5811 47.4299 78.3343C47.0814 78.0874 46.6529 77.9803 46.2292 78.0342C44.4128 78.1472 42.5913 78.1472 40.775 78.034C40.3512 77.9865 39.9248 78.0973 39.5777 78.345C39.2305 78.5927 38.9871 78.96 38.8942 79.3762L38.4545 82.6047C38.4358 82.7596 38.4498 82.9168 38.4956 83.066C38.5415 83.2151 38.6181 83.3531 38.7205 83.4708C38.922 83.6952 39.1669 83.8765 39.4404 84.0038C39.7138 84.131 40.0102 84.2016 40.3117 84.2112Z" fill="black"/>
<path d="M47.0228 77.4405C46.9434 76.345 46.5776 73.0563 43.4013 73.112C40.2251 73.1677 39.967 76.7987 39.7798 77.352C39.7798 77.352 41.4984 77.4405 43.3701 77.4405L47.0228 77.4405Z" fill="white"/>
<path d="M47.0229 78.1448H43.3697C41.5015 78.1448 39.7609 78.0563 39.7433 78.0554C39.6347 78.0498 39.5288 78.019 39.434 77.9656C39.3392 77.9122 39.2581 77.8376 39.1969 77.7476C39.1358 77.6576 39.0964 77.5546 39.0817 77.4468C39.067 77.339 39.0774 77.2293 39.1122 77.1262C39.1307 77.0681 39.1483 76.9694 39.1743 76.8438C39.3959 75.761 40.0689 72.4659 43.3881 72.4076C45.9478 72.3782 47.492 74.1794 47.7253 77.3893C47.7324 77.4858 47.7195 77.5828 47.6874 77.6742C47.6554 77.7656 47.6048 77.8493 47.5388 77.9202C47.4729 77.9911 47.393 78.0477 47.3043 78.0863C47.2155 78.125 47.1197 78.1449 47.0229 78.1448ZM40.6522 76.6835C41.3253 76.7078 42.3273 76.7361 43.3697 76.7361H46.234C45.9209 74.7702 44.9491 73.7843 43.4133 73.8162C41.6593 73.8471 41.0056 75.2192 40.6522 76.6835Z" fill="black"/>
<path d="M42.4568 73.8161C42.326 73.8163 42.1977 73.78 42.0864 73.7114C41.975 73.6427 41.885 73.5443 41.8265 73.4274C36.6149 63.036 37.3719 49.4364 37.4063 48.8626C37.4106 48.7698 37.4335 48.6788 37.4736 48.595C37.5137 48.5113 37.5702 48.4364 37.6398 48.3748C37.7094 48.3132 37.7906 48.2662 37.8786 48.2365C37.9666 48.2069 38.0597 48.1952 38.1523 48.2021C38.3387 48.2135 38.513 48.2984 38.6368 48.4382C38.7607 48.578 38.824 48.7612 38.8128 48.9476C38.8044 49.0846 38.0466 62.7488 43.0854 72.7959C43.1391 72.9032 43.1646 73.0225 43.1593 73.1424C43.154 73.2623 43.1182 73.3789 43.0553 73.4811C42.9923 73.5833 42.9043 73.6677 42.7995 73.7264C42.6948 73.785 42.5768 73.8159 42.4568 73.8161Z" fill="black"/>
<path d="M46.3982 55.8766C45.0987 56.9255 43.7256 57.9581 43.7279 57.9537C43.7366 57.9606 41.8646 57.2201 40.5259 56.5805C30.1605 52.5869 18.2453 47.5622 10.4278 41.2585C7.35509 38.3009 4.8341 34.5802 4.10754 30.1432C3.49419 25.7242 3.69089 20.7966 6.73793 16.4347C9.7486 12.0629 14.5109 9.73665 18.9697 8.73602C23.5113 7.78379 27.2114 8.14886 31.0459 10.1344C33.7459 11.8813 36.2215 13.9527 38.4173 16.3021C39.9337 13.7805 42.3092 10.2687 44.0726 8.72906C47.2481 5.91354 50.7798 4.78209 55.2619 4.86453C60.1734 4.93901 64.8939 6.77925 68.56 10.0486C72.4422 13.6155 73.6541 17.8988 73.9807 21.9251C74.202 25.9898 72.8177 29.8203 70.5055 33.4099C64.8369 41.5166 55.0561 49.413 46.3982 55.8766Z" fill="url(#paint0_linear_135_113)"/>
<path d="M54.8103 4.86048C54.9597 4.86048 55.1102 4.86188 55.2618 4.86468C60.1733 4.93919 64.8938 6.77937 68.5599 10.0486C72.4422 13.6154 73.654 17.8988 73.9805 21.925C74.202 25.9899 72.8177 29.8205 70.5052 33.4099C64.8366 41.5169 55.0558 49.4133 46.3982 55.8766C45.1025 56.9228 43.7337 57.952 43.7278 57.9538C43.719 57.9538 41.8584 57.2173 40.5257 56.5808C30.1603 52.5868 18.2453 47.5624 10.4279 41.2585C7.355 38.301 4.83395 34.5803 4.10758 30.1432C3.49411 25.7242 3.69091 20.7967 6.73775 16.4348C9.7485 12.0628 14.5107 9.73685 18.9696 8.73606C20.4385 8.41449 21.9369 8.24601 23.4406 8.23333C26.0938 8.22902 28.7067 8.88224 31.0457 10.1346C33.7457 11.8814 36.2213 13.9527 38.4171 16.3021C39.9336 13.7807 42.3091 10.2689 44.0723 8.72932C47.0128 6.09312 50.8642 4.70552 54.8103 4.86048ZM54.8103 3.829C50.6124 3.67705 46.5189 5.15673 43.3883 7.95761C41.5836 9.53327 39.4364 12.7286 38.2371 14.6291C36.2151 12.5846 33.9696 10.7739 31.543 9.23115C29.0496 7.90031 26.267 7.2034 23.4406 7.20188C21.8658 7.21364 20.2965 7.38957 18.7581 7.72682C13.2036 8.97357 8.63819 11.8571 5.88844 15.8498C3.19157 19.7103 2.27387 24.4339 3.08624 30.285C3.77567 34.498 6.00382 38.4319 9.71283 42.0016L9.74514 42.0326L9.78037 42.0611C17.678 48.4297 29.5439 53.4534 40.1174 57.5287C41.2723 58.1269 42.4811 58.6146 43.7278 58.9852H43.8713L44.0094 58.9457C44.1147 58.9159 44.3618 58.8458 47.0461 56.6789C55.2568 50.55 65.4711 42.409 71.3503 34.0008C74.0384 29.8298 75.2284 25.8724 75.0102 21.8688C74.5738 16.483 72.7464 12.4946 69.2577 9.28911C65.4047 5.8599 60.4505 3.92463 55.2933 3.8341C55.1229 3.83074 54.966 3.829 54.8103 3.829Z" fill="url(#paint1_linear_135_113)"/>
<path d="M45.3261 40.8785C45.222 40.8785 45.1214 40.8407 45.0431 40.7721C44.9648 40.7036 44.9139 40.609 44.9001 40.5058C44.8863 40.4026 44.9103 40.2979 44.9678 40.2112C45.0253 40.1244 45.1124 40.0615 45.2128 40.034C45.8967 39.8464 47.6793 39.1406 47.7103 38.1405C47.7219 37.974 47.6984 37.807 47.6415 37.6502C47.5845 37.4934 47.4953 37.3502 47.3797 37.2299C46.7598 36.7579 46.0028 36.5012 45.2237 36.499C45.1187 36.4979 45.0177 36.4585 44.9398 36.3881C44.8619 36.3177 44.8124 36.2213 44.8007 36.1169C44.7891 36.0126 44.816 35.9076 44.8764 35.8217C44.9369 35.7359 45.0267 35.6751 45.1289 35.6509C45.4848 35.584 45.8142 35.4165 46.0779 35.1681C46.3416 34.9198 46.5286 34.6011 46.6168 34.2498C46.6808 34.0251 46.6803 33.787 46.6155 33.5626C46.5506 33.3381 46.424 33.1364 46.2501 32.9805C45.7499 32.5798 44.8578 32.6368 43.8029 33.1349C43.7518 33.159 43.6966 33.1727 43.6402 33.1754C43.5839 33.178 43.5276 33.1696 43.4745 33.1505C43.4214 33.1314 43.3727 33.102 43.3309 33.0641C43.2892 33.0261 43.2554 32.9803 43.2313 32.9293C43.2073 32.8783 43.1936 32.823 43.1909 32.7667C43.1882 32.7104 43.1967 32.654 43.2158 32.601C43.2349 32.5479 43.2642 32.4991 43.3022 32.4574C43.3401 32.4157 43.3859 32.3818 43.437 32.3578C45.3059 31.4753 46.3382 31.9497 46.788 32.3104C47.0885 32.5664 47.3105 32.9021 47.4286 33.2788C47.5466 33.6554 47.5558 34.0578 47.4552 34.4395C47.3285 34.9903 47.0271 35.4854 46.5958 35.8507C47.1225 35.9864 47.6052 36.2557 47.9974 36.6326C48.1937 36.835 48.346 37.076 48.4445 37.3402C48.543 37.6045 48.5856 37.8863 48.5697 38.1678C48.5126 39.9742 45.7532 40.7776 45.4394 40.8632C45.4024 40.8732 45.3643 40.8783 45.3261 40.8785Z" fill="black"/>
<path d="M45.2028 21.2615C44.5212 28.519 56.302 35.8543 56.302 35.8543C56.302 35.8543 69.188 31.4229 69.8697 24.1654C70.5513 16.9079 60.8027 15.2533 57.557 22.4923C54.7203 15.0019 45.8844 14.004 45.2028 21.2615Z" fill="white"/>
<path d="M51.6376 25.259C51.9494 28.5334 56.9949 32.2798 56.9949 32.2798C56.9949 32.2798 62.4924 29.7086 63.2848 26.2578C64.0888 22.7564 60.3602 21.2153 57.469 25.6487C55.0405 20.9707 51.2957 21.6684 51.6376 25.259Z" fill="#C917CF"/>
<path d="M10.1266 29.9762C11.9323 37.5771 30.074 40.3518 30.074 40.3518C30.074 40.3518 39.4575 31.0379 37.6518 23.4371C35.8461 15.8362 24.7906 17.9078 23.8342 26.475C18.1658 19.9902 8.32088 22.3753 10.1266 29.9762Z" fill="white"/>
<path d="M19.4712 32.2888C21.2646 35.0042 27.9299 35.7437 27.9299 35.7437C27.9299 35.7437 32.1718 30.7125 31.3848 27.285C30.5863 23.8072 26.218 24.3376 25.3859 29.6867C20.8727 26.8086 17.5047 29.3113 19.4712 32.2888Z" fill="#C917CF"/>
<path d="M58.665 14.0626C58.4762 14.0626 58.2927 14.0002 58.143 13.8851C56.1743 12.3851 53.9133 11.3139 51.5055 10.7405C51.282 10.6976 51.0847 10.5678 50.9568 10.3796C50.8288 10.1914 50.7808 9.96019 50.8231 9.73661C50.8654 9.51303 50.9947 9.31537 51.1826 9.18698C51.3705 9.05858 51.6016 9.00994 51.8253 9.05172C54.5001 9.66704 57.0113 10.8503 59.1887 12.5213C59.3312 12.6307 59.4358 12.7819 59.4879 12.9538C59.54 13.1257 59.537 13.3096 59.4792 13.4796C59.4214 13.6497 59.3118 13.7973 59.1658 13.9019C59.0197 14.0065 58.8446 14.0627 58.665 14.0626Z" fill="black"/>
<path d="M10.0616 7.0986C9.87485 7.09872 9.69312 7.038 9.54394 6.92561C9.39476 6.81323 9.28625 6.6553 9.23485 6.47574C9.18344 6.29618 9.19194 6.10475 9.25905 5.93045C9.32615 5.75615 9.44822 5.60845 9.60677 5.50972C12.7867 3.52887 16.1251 1.81462 19.5878 0.384521C19.8017 0.305728 20.0381 0.315135 20.2451 0.410672C20.452 0.506209 20.6126 0.680052 20.6914 0.893956C20.7702 1.10786 20.7608 1.3443 20.6652 1.55127C20.5697 1.75824 20.3959 1.91878 20.1819 1.99757C16.8312 3.39214 13.5984 5.05459 10.5148 6.96877C10.3789 7.05371 10.2219 7.0987 10.0616 7.0986Z" fill="black"/>
<path d="M7.06296 50.6949C4.94221 50.6951 3.15716 50.2774 2.07036 49.2546C-0.397828 46.9303 1.26972 42.3349 7.02603 35.5958C7.08613 35.5255 7.15948 35.4677 7.24191 35.4258C7.32434 35.3838 7.41422 35.3585 7.50644 35.3513C7.59865 35.344 7.69138 35.3551 7.77934 35.3837C7.8673 35.4123 7.94876 35.4579 8.01908 35.518C8.08939 35.5781 8.14718 35.6515 8.18914 35.7339C8.23111 35.8163 8.25642 35.9062 8.26365 35.9984C8.27087 36.0907 8.25987 36.1834 8.23125 36.2713C8.20264 36.3593 8.15698 36.4408 8.09689 36.5111C3.06484 42.4021 1.26804 46.5636 3.03631 48.2289C6.31687 51.32 20.0769 46.9707 23.9576 43.8017C22.9841 43.0736 21.9474 42.4341 20.86 41.8908C20.694 41.8049 20.569 41.6565 20.5124 41.4785C20.4558 41.3004 20.4723 41.1071 20.5582 40.9412C20.6442 40.7752 20.7925 40.6502 20.9706 40.5937C21.1486 40.5371 21.3419 40.5536 21.5078 40.6395C25.3952 42.6501 25.5143 43.4656 25.5529 43.7337C25.5744 43.8733 25.5619 44.016 25.5165 44.1497C25.4711 44.2834 25.394 44.4041 25.2919 44.5016C22.7432 46.958 13.4067 50.6943 7.06296 50.6949Z" fill="black"/>
<defs>
<linearGradient id="paint0_linear_135_113" x1="50.0382" y1="84.2377" x2="35.2637" y2="5.52988" gradientUnits="userSpaceOnUse">
<stop offset="0.15922" stop-color="#F214B8"/>
<stop offset="0.20043" stop-color="#F31EC2"/>
<stop offset="0.33084" stop-color="#F63ADD"/>
<stop offset="0.46212" stop-color="#F84EF0"/>
<stop offset="0.59374" stop-color="#FA5AFB"/>
<stop offset="0.72626" stop-color="#FA5EFF"/>
<stop offset="0.86181" stop-color="#FA67FF"/>
<stop offset="1" stop-color="#FB76FF"/>
</linearGradient>
<linearGradient id="paint1_linear_135_113" x1="38.9182" y1="58.9852" x2="38.9182" y2="3.82906" gradientUnits="userSpaceOnUse">
<stop stop-color="#B427C2"/>
<stop offset="1" stop-color="#D238D6"/>
</linearGradient>
</defs>
</svg>
