<svg width="101" height="103" viewBox="0 0 101 103" fill="none" xmlns="http://www.w3.org/2000/svg">
<path d="M35.0124 77.7815C30.9734 88.7815 28.8249 93.1643 32.0046 94.1096C34.6687 94.883 39.1374 89.469 40.9421 86.9768C41.028 86.8909 41.114 86.8049 41.1999 86.719C41.2859 86.633 41.4577 86.633 41.5437 86.719C41.6296 86.719 41.8015 86.8049 41.8874 86.8909C41.9734 86.9768 42.0593 87.0627 42.0593 87.2346C43.0905 91.1877 46.4421 102.274 50.5671 102.274C53.9187 102.274 53.9187 92.4768 53.8327 88.9534C53.8327 88.8674 53.8327 88.6955 53.9187 88.6096C54.0046 88.5237 54.0905 88.4377 54.1765 88.3518C54.2624 88.2659 54.4343 88.2659 54.5202 88.2659C54.6062 88.2659 54.778 88.2659 54.864 88.3518C57.1843 89.8127 62.5124 92.7346 62.5124 89.2112C62.5124 85.4299 55.7234 73.6565 51.4265 66.094C48.5905 66.1799 41.9734 65.4924 39.2234 66.094L35.0124 77.7815Z" fill="white"/>
<path d="M50.5673 102.961C46.2705 102.961 43.0048 93.2501 41.372 87.4064C38.5361 91.1876 34.583 95.5705 31.747 94.797C30.9736 94.5392 30.372 94.1095 30.0283 93.508C29.083 91.6173 30.372 88.2658 32.8642 81.5627C33.2939 80.3595 33.8095 79.0705 34.3252 77.6095L38.5361 65.8361C38.622 65.5783 38.7939 65.4064 39.0517 65.4064C40.9423 64.9767 44.4658 65.1486 47.4736 65.3205C49.0205 65.4064 50.3955 65.4064 51.3408 65.4064C51.5986 65.4064 51.8564 65.5783 51.9423 65.7501L53.0595 67.6408C57.5283 75.633 63.1142 85.5158 63.1142 89.2111C63.1142 90.5002 62.5127 91.0158 62.083 91.2736C60.708 92.047 58.1298 91.2736 54.4345 88.9533C54.6064 92.9064 54.4345 99.9533 52.2861 102.188C51.8564 102.703 51.2548 102.961 50.5673 102.961ZM41.372 85.9791C41.458 85.9791 41.6646 86.0261 41.7505 86.0261C42.0083 86.112 42.2314 86.2033 42.4033 86.3751C42.5752 86.547 42.747 86.8048 42.833 87.0627C45.2392 95.9142 48.247 101.586 50.6533 101.586C50.9111 101.586 51.1689 101.5 51.4267 101.242C52.7158 99.8673 53.4033 95.3126 53.2314 88.9533C53.2314 88.6955 53.3173 88.4376 53.4033 88.2658C53.4892 88.0939 53.6611 87.8361 53.9189 87.7501C54.1767 87.6642 54.3486 87.5783 54.6064 87.5783C54.8642 87.5783 55.122 87.6642 55.2939 87.7501C58.9033 89.9845 60.8798 90.4142 61.5673 90.0705C61.6533 89.9845 61.9111 89.8986 61.9111 89.2111C61.9111 85.8595 55.9814 75.3751 52.0283 68.3283L51.1689 66.7814C50.2236 66.7814 48.9345 66.6955 47.6455 66.6955C44.9814 66.6095 41.7158 66.4376 39.9111 66.6955L35.5402 78.0392C35.0245 79.4142 34.5089 80.7892 34.0792 81.9923C31.9308 87.7501 30.5558 91.5314 31.2433 92.8205C31.3292 92.9923 31.5011 93.2502 32.1027 93.422C33.6495 93.8517 36.9635 91.2897 40.401 86.5632C40.5378 86.3751 40.683 86.2611 40.8683 86.1173C41.0455 86.0314 41.2002 85.9791 41.372 85.9791Z" fill="black"/>
<path d="M90.6451 70.6381C86.4933 63.79 54.5883 11.6989 52.0723 7.35861C51.08 5.64689 49.0973 1.9033 46.9178 1.75537C44.7383 1.90287 42.7548 5.64606 41.7623 7.35758C39.2454 11.6974 7.33007 63.7821 3.17687 70.6294C1.54303 73.3228 0.122793 75.8328 6.15267 75.9748C20.6701 76.3174 33.2226 76.0539 46.9105 75.9923C60.5984 76.0566 73.1507 76.3226 87.6683 75.9829C93.6982 75.8421 92.2784 73.3318 90.6451 70.6381Z" fill="url(#paint0_linear_135_252)"/>
<path d="M46.9181 1.75519C49.0976 1.9029 51.0803 5.64671 52.0722 7.35831C54.5883 11.6988 86.4934 63.7896 90.6455 70.6378C92.2787 73.3317 93.6982 75.8419 87.6683 75.9828C82.2506 76.1096 77.1083 76.152 72.077 76.152C63.6255 76.152 55.4904 76.0324 46.9105 75.9921C38.394 76.0303 30.3185 76.1469 21.9341 76.1469C16.8433 76.1469 11.6376 76.1041 6.15274 75.9745C0.12285 75.8327 1.54325 73.3225 3.17724 70.6294C7.33019 63.7821 39.2454 11.6972 41.7622 7.3575C42.7551 5.64588 44.7386 1.90243 46.9181 1.75519ZM46.9181 0.721722L46.8484 0.726337C44.2737 0.900472 42.2834 4.37449 41.0946 6.4499L40.8701 6.84015C39.1955 9.72753 24.3641 33.9839 13.5346 51.6951C8.02675 60.703 3.67616 67.818 2.29562 70.0948C1.30155 71.733 0.174464 73.5902 1.03006 75.1525C1.69473 76.3668 3.26746 76.9383 6.1284 77.0055C11.1206 77.1234 16.143 77.1784 21.9341 77.1784C26.9082 77.1784 31.8773 77.1364 36.6828 77.0961C40.0544 77.0676 43.4483 77.039 46.9151 77.0235C50.377 77.0395 53.7755 77.0688 57.1517 77.0978C62.0138 77.1397 67.0416 77.183 72.077 77.183C77.7117 77.183 82.8196 77.1276 87.6922 77.0139C90.5536 76.9467 92.1263 76.3756 92.7914 75.1617C93.647 73.5999 92.5208 71.7422 91.5275 70.1032C90.1529 67.8364 85.8329 60.7684 80.3636 51.8197C69.5086 34.0594 54.6424 9.73547 52.9643 6.84137L52.7411 6.45238C51.5527 4.37613 49.5633 0.900816 46.9877 0.726294L46.9181 0.721722Z" fill="url(#paint1_linear_135_252)"/>
<path d="M65.48 40.7488C63.1218 43.1905 56.8556 44.7169 53.4805 45.0797C43.9486 46.1044 32.9864 45.1883 28.335 40.6797C33.6129 33.3901 38.8608 30.0567 45.5588 29.2628C53.9195 28.2719 63.1822 35.4173 65.48 40.7488Z" fill="white"/>
<mask id="mask0_135_252" style="mask-type:luminance" maskUnits="userSpaceOnUse" x="28" y="29" width="38" height="17">
<path d="M65.4869 40.7266C63.1322 43.1717 56.8683 44.7097 53.4937 45.0774C43.9633 46.116 32.9998 45.2133 28.3418 40.7115C33.6091 33.4142 38.8521 30.0732 45.5491 29.2696C53.9083 28.2665 63.1813 35.3984 65.4869 40.7266Z" fill="white"/>
</mask>
<g mask="url(#mask0_135_252)">
<path d="M46.522 48.5859C51.0095 48.5859 54.6474 44.948 54.6474 40.4604C54.6474 35.9729 51.0095 32.335 46.522 32.335C42.0344 32.335 38.3965 35.9729 38.3965 40.4604C38.3965 44.948 42.0344 48.5859 46.522 48.5859Z" fill="black"/>
</g>
<path d="M41.5975 20.0139C43.1136 19.1466 44.6138 18.3329 46.1399 17.5277C47.6631 16.7258 49.1992 15.9464 50.7481 15.1896C50.951 15.09 51.1716 15.0314 51.3972 15.0171C51.6227 15.0028 51.8489 15.0332 52.0628 15.1064C52.2766 15.1797 52.4739 15.2944 52.6434 15.444C52.8128 15.5936 52.9511 15.7751 53.0503 15.9782C53.1495 16.1813 53.2077 16.402 53.2215 16.6276C53.2353 16.8532 53.2045 17.0793 53.1308 17.293C53.0571 17.5067 52.942 17.7038 52.7921 17.8729C52.6422 18.0421 52.4604 18.18 52.2571 18.2788C52.2415 18.2864 52.2172 18.2977 52.2013 18.3048C50.6621 18.9922 49.1318 19.7034 47.6102 20.4386C46.0937 21.1725 44.5688 21.9337 43.0973 22.7091L43.0821 22.7171C42.7244 22.9057 42.3068 22.9462 41.9195 22.8298C41.5321 22.7135 41.206 22.4497 41.0113 22.0952C40.8166 21.7407 40.7689 21.3239 40.8786 20.9346C40.9882 20.5453 41.2464 20.2147 41.5975 20.0139Z" fill="black"/>
<path d="M46.958 59.8276C45.9268 59.7417 44.9814 59.4839 44.1221 58.9683C43.2627 58.4526 42.5752 57.7651 42.1455 56.9058C41.2861 55.273 40.6846 53.5542 40.5127 51.6636C40.5127 51.3198 40.7705 50.9761 41.1143 50.8901C41.458 50.8901 41.8018 51.1479 41.8877 51.4917C42.0596 53.1245 42.4893 54.6714 43.3486 56.1323C43.6924 56.8198 44.208 57.3355 44.8955 57.7651C45.4971 58.1948 46.2705 58.3667 46.958 58.4526C47.6455 58.3667 48.4189 58.1948 49.0205 57.7651C49.6221 57.3355 50.1377 56.8198 50.4814 56.2183C51.2549 54.7573 51.7705 53.2964 51.9424 51.6636C51.9424 51.3198 52.3721 50.9761 52.7158 51.062C53.0596 51.062 53.4033 51.4058 53.3174 51.8355C53.1455 53.6401 52.6299 55.3589 51.7705 56.9058C51.2549 57.7651 50.6533 58.4526 49.7939 58.9683C48.9346 59.4839 47.9893 59.7417 46.958 59.8276C47.0439 59.8276 47.0439 59.8276 46.958 59.8276Z" fill="black"/>
<path d="M65.0045 47.9678C64.317 47.9678 63.7154 47.4522 63.6295 46.7647C63.5435 45.9913 64.0591 45.3038 64.8326 45.2178L69.9029 44.4444C70.6763 44.3585 71.3638 44.8741 71.4498 45.6475C71.5357 46.421 71.0201 47.1085 70.2466 47.1944L65.1763 47.9678C65.1763 47.9678 65.0904 47.9678 65.0045 47.9678Z" fill="#FF99E4"/>
<path d="M28.9107 47.9678C28.8248 47.9678 28.7388 47.9678 28.7388 47.9678L23.6685 47.1944C22.8951 47.1085 22.3795 46.421 22.4654 45.6475C22.5513 44.8741 23.2388 44.3585 24.0123 44.4444L29.0826 45.2178C29.856 45.3038 30.3716 45.9913 30.2857 46.7647C30.1138 47.4522 29.5123 47.9678 28.9107 47.9678Z" fill="#FF99E4"/>
<path d="M98.9503 58.1943C98.9503 64.5537 93.0206 65.1553 86.2315 65.2412C77.9815 65.4131 74.9737 60.7725 74.9737 55.0146C74.8878 48.0537 75.3175 36.7959 75.4034 29.0615C75.4034 25.5381 74.9737 22.0146 78.755 22.0146C81.6768 22.0146 83.9971 24.0771 83.9971 31.6396C83.9971 34.9912 84.255 37.7412 85.7159 39.8896L95.3409 53.21C95.3409 53.124 98.9503 53.0381 98.9503 58.1943Z" fill="white"/>
<path d="M85.8018 65.9287C82.1064 65.9287 79.1846 64.9834 77.208 63.0068C75.3174 61.1162 74.2861 58.3662 74.2861 55.0146C74.2861 50.8896 74.3721 45.2178 74.5439 39.7178C74.6299 35.8506 74.7158 32.1553 74.7158 29.0615C74.7158 28.7178 74.7158 28.374 74.7158 27.9443C74.7158 25.71 74.7158 23.5615 75.9189 22.2725C76.6064 21.585 77.4658 21.3271 78.6689 21.3271C82.708 21.3271 84.5986 24.6787 84.5986 31.6397C84.5986 35.0772 84.8564 37.5693 86.2314 39.5459L95.6846 52.6084C96.2002 52.6943 97.2314 52.9521 98.0908 53.7256C99.1221 54.7568 99.6377 56.2178 99.6377 58.2803C99.6377 65.7568 91.9033 65.9287 86.2314 66.0146C86.0596 65.9287 85.9736 65.9287 85.8018 65.9287ZM78.6689 22.6162C77.8096 22.6162 77.2939 22.7881 76.8643 23.2178C76.0049 24.0771 76.0049 25.9678 76.0049 27.9443C76.0049 28.2881 76.0049 28.7178 76.0049 29.0615C76.0049 32.2412 75.9189 35.8506 75.833 39.7178C75.7471 45.2178 75.5752 50.8037 75.5752 54.9287C75.5752 57.9365 76.4346 60.3428 78.1533 61.9756C79.958 63.6943 82.6221 64.5537 86.1455 64.4678C94.1377 64.2959 98.1768 63.2646 98.1768 58.1084C98.1768 56.4756 97.833 55.2725 97.0596 54.585C96.2861 53.8115 95.3408 53.8115 95.2549 53.8115C94.9971 53.8115 94.8252 53.7256 94.6533 53.5537L85.0283 40.2334C83.3096 37.7412 83.1377 34.5615 83.1377 31.5537C83.2236 22.6162 79.7861 22.6162 78.6689 22.6162Z" fill="black"/>
<path d="M90.0122 60.7725C87.0044 60.7725 80.645 60.7725 80.645 56.5615C80.645 54.6709 81.5903 53.3818 83.481 52.7803C85.0278 52.2646 86.9185 52.3506 88.7231 52.3506H88.981C89.3247 52.3506 89.6685 52.6943 89.6685 53.0381C89.6685 53.3818 89.3247 53.7256 88.981 53.7256H88.7231C87.0044 53.7256 85.1997 53.7256 83.9106 54.1553C82.6216 54.585 82.02 55.3584 82.02 56.5615C82.02 59.0537 86.0591 59.3975 90.0122 59.3975C90.356 59.3975 90.6997 59.7412 90.6997 60.085C90.6997 60.4287 90.4419 60.7725 90.0122 60.7725Z" fill="black"/>
<path d="M94.9107 46.0776C90.9575 46.0776 88.981 46.0776 85.3716 46.0776C84.4263 46.1636 83.5669 45.9058 82.7935 45.3042C82.02 44.7886 81.5044 43.9292 81.3325 43.0698C81.2466 42.5542 81.3325 42.1245 81.5044 41.6089C81.6763 41.1792 81.8482 40.7495 82.1919 40.3198C82.5357 39.9761 82.8794 39.6323 83.3091 39.4605C83.7388 39.2886 84.2544 39.1167 84.6841 39.1167C88.2935 38.7729 91.9029 38.7729 95.5122 39.1167C96.0279 39.1167 96.4575 39.2886 96.8872 39.4605C97.3169 39.6323 97.7466 39.9761 98.0044 40.3198C98.3482 40.6636 98.52 41.0933 98.6919 41.6089C98.8638 42.0386 98.8638 42.5542 98.8638 43.0698C98.6919 44.0151 98.1763 44.7886 97.4029 45.3901C96.8013 45.9058 95.856 46.1636 94.9107 46.0776Z" fill="white"/>
<path d="M95.3404 46.7651C95.1685 46.7651 95.0825 46.7651 94.9107 46.7651C90.9575 46.7651 88.981 46.7651 85.4575 46.7651C84.4263 46.8511 83.3091 46.5073 82.4497 45.9058C81.5904 45.2183 80.9888 44.3589 80.731 43.2417C80.645 42.5542 80.731 42.0386 80.9029 41.437C81.0747 40.8354 81.3325 40.4058 81.7622 39.8901C82.106 39.4604 82.6216 39.1167 83.1372 38.8589C83.6529 38.6011 84.2544 38.4292 84.856 38.4292C88.4654 38.0854 92.1607 38.0854 95.77 38.4292C96.2857 38.4292 96.8872 38.6011 97.4028 38.8589C97.9185 39.1167 98.4341 39.4604 98.7779 39.8901C99.1216 40.3198 99.4654 40.8354 99.6372 41.437C99.8091 42.0386 99.895 42.5542 99.8091 43.1558C99.6372 44.2729 99.0357 45.2183 98.0904 45.9058C97.145 46.5073 96.2857 46.7651 95.3404 46.7651ZM94.9107 45.3901C94.9966 45.3901 94.9966 45.3901 94.9107 45.3901C95.77 45.4761 96.4575 45.3042 97.145 44.7886C97.7466 44.3589 98.1763 43.6714 98.3482 42.898C98.3482 42.5542 98.3482 42.1245 98.2622 41.7808C98.1763 41.437 97.9185 41.0933 97.6607 40.7495C97.4029 40.4058 97.0591 40.2339 96.7154 40.062C96.3716 39.8901 95.9419 39.8042 95.5982 39.8042C91.9888 39.4605 88.4654 39.4605 84.856 39.8042C84.4263 39.8042 83.9966 39.8901 83.6528 40.062C83.3091 40.2339 82.9654 40.4917 82.7075 40.7495C82.4497 41.0073 82.2779 41.3511 82.106 41.7808C82.02 42.1245 81.9341 42.5542 82.02 42.9839C82.1919 43.6714 82.6216 44.273 83.2232 44.7886C83.8247 45.2183 84.5982 45.4761 85.3716 45.3901C88.981 45.3901 91.0435 45.3901 94.9107 45.3901Z" fill="black"/>
<path d="M95.3408 53.1245C92.333 53.1245 88.7236 53.2104 84.7705 53.1245C82.8798 53.1245 81.0751 52.0073 80.7314 50.1167C80.6455 49.601 80.7314 49.1714 80.8173 48.6557C80.9892 48.226 81.1611 47.7104 81.5048 47.3667C81.8486 47.0229 82.1923 46.6792 82.622 46.5073C83.0517 46.3354 83.5673 46.1635 83.997 46.1635C88.0361 45.9917 93.1064 46.2495 95.8564 46.1635C96.372 46.1635 96.8017 46.2495 97.3173 46.5073C97.747 46.6792 98.1767 47.0229 98.5205 47.3667C98.8642 47.7104 99.0361 48.226 99.208 48.6557C99.3798 49.1714 99.3798 49.601 99.2939 50.1167C99.122 51.062 98.6064 51.8354 97.833 52.437C97.1455 52.9526 96.2001 53.2104 95.3408 53.1245Z" fill="white"/>
<path d="M90.0986 53.8981C88.4658 53.8981 86.747 53.8981 84.7705 53.8981C82.3642 53.8981 80.3876 52.4371 80.0439 50.2887C79.958 49.6871 80.0439 49.0856 80.1298 48.5699C80.3017 47.9684 80.5595 47.4527 80.9892 47.0231C81.333 46.5934 81.8486 46.2496 82.3642 45.9918C82.8798 45.734 83.4814 45.5621 84.083 45.5621C86.3173 45.4762 88.8955 45.5621 91.1298 45.5621C92.9345 45.5621 94.7392 45.6481 95.9423 45.5621C96.5439 45.5621 97.1455 45.6481 97.6611 45.9059C98.1767 46.1637 98.6923 46.5074 99.0361 46.9371C99.4658 47.3668 99.7236 47.8824 99.8955 48.484C100.067 49.0856 100.067 49.6871 99.9814 50.2027C99.8095 51.3199 99.208 52.2652 98.2626 52.9527C97.4033 53.6402 96.2861 53.8981 95.2548 53.8121C93.9658 53.8121 92.1611 53.8981 90.0986 53.8981ZM87.1767 46.8512C86.1455 46.8512 85.1142 46.8512 84.1689 46.9371C83.7392 46.9371 83.3955 47.0231 83.0517 47.1949C82.708 47.3668 82.3642 47.6246 82.1064 47.8824C81.8486 48.2262 81.6767 48.5699 81.5908 48.9137C81.5048 49.2574 81.4189 49.6871 81.5048 50.1168C81.7626 51.7496 83.3955 52.5231 84.8564 52.5231C89.2392 52.609 93.0205 52.5231 95.3408 52.5231H95.4267C96.2001 52.609 96.9736 52.3512 97.5751 51.9215C98.1767 51.4918 98.6064 50.8043 98.7783 50.0309C98.8642 49.6871 98.7783 49.2574 98.6923 48.9137C98.6064 48.5699 98.4345 48.2262 98.1767 47.8824C97.9189 47.5387 97.5751 47.3668 97.2314 47.1949C96.8876 47.0231 96.5439 46.9371 96.1142 46.9371C94.9111 47.0231 93.1064 46.9371 91.3017 46.9371C89.8408 46.8512 88.4658 46.8512 87.1767 46.8512Z" fill="black"/>
<defs>
<linearGradient id="paint0_linear_135_252" x1="47.1722" y1="109.187" x2="46.4184" y2="7.58989" gradientUnits="userSpaceOnUse">
<stop stop-color="#1C7EFF"/>
<stop offset="0.038" stop-color="#1F8BFB"/>
<stop offset="0.10747" stop-color="#25ACF0"/>
<stop offset="0.1648" stop-color="#2CCCE5"/>
<stop offset="0.16695" stop-color="#2DCDE5"/>
<stop offset="0.24028" stop-color="#52DCED"/>
<stop offset="0.31623" stop-color="#71E9F4"/>
<stop offset="0.39616" stop-color="#89F2F9"/>
<stop offset="0.48067" stop-color="#9AFAFC"/>
<stop offset="0.57289" stop-color="#A4FEFE"/>
<stop offset="0.68715" stop-color="#A7FFFF"/>
<stop offset="0.92189" stop-color="#9DFFB3"/>
<stop offset="1" stop-color="#99FF99"/>
</linearGradient>
<linearGradient id="paint1_linear_135_252" x1="46.9105" y1="77.1808" x2="46.9181" y2="0.721682" gradientUnits="userSpaceOnUse">
<stop stop-color="#108DB3"/>
<stop offset="1" stop-color="#4EDEB5"/>
</linearGradient>
</defs>
</svg>
