<svg width="22" height="22" viewBox="0 0 22 22" fill="none" xmlns="http://www.w3.org/2000/svg">
<path d="M1 11C1 5.47716 5.47716 1 11 1C16.5228 1 21 5.47716 21 11C21 16.5228 16.5228 21 11 21C5.47716 21 1 16.5228 1 11Z" fill="white" stroke="white" stroke-width="2" stroke-miterlimit="10" stroke-linecap="round" stroke-linejoin="round"/>
<path d="M15.7909 5.91525C14.7952 7.13089 13.2826 7.90678 11.5887 7.90678H10.5831C8.88921 7.90678 7.37658 7.13089 6.38086 5.91525" stroke="#8D30B9" stroke-width="2" stroke-miterlimit="10" stroke-linecap="round" stroke-linejoin="round"/>
<path d="M14.178 14.2627C14.178 12.4841 12.7362 11.0424 10.9576 11.0424C9.17908 11.0424 7.7373 12.4841 7.7373 14.2627C7.7373 16.0413 9.17908 17.483 10.9576 17.483C12.7362 17.483 14.178 16.0413 14.178 14.2627Z" stroke="#8D30B9" stroke-width="2" stroke-miterlimit="10" stroke-linecap="round" stroke-linejoin="round"/>
</svg>
