<svg width="22" height="22" viewBox="0 0 22 22" fill="none" xmlns="http://www.w3.org/2000/svg">
<path d="M1 11C1 16.5228 5.47716 21 11 21C16.5228 21 21 16.5228 21 11C21 5.47716 16.5228 1 11 1C5.47716 1 1 5.47716 1 11Z" fill="white" stroke="white" stroke-width="2" stroke-miterlimit="10" stroke-linecap="round" stroke-linejoin="round"/>
<path d="M15.7909 16.0847C14.7952 14.8691 13.2826 14.0932 11.5887 14.0932H10.5831C8.88921 14.0932 7.37658 14.8691 6.38086 16.0847" stroke="#8D30B9" stroke-width="2" stroke-miterlimit="10" stroke-linecap="round" stroke-linejoin="round"/>
<path d="M14.178 7.7373C14.178 9.51586 12.7362 10.9576 10.9576 10.9576C9.17908 10.9576 7.7373 9.51586 7.7373 7.7373C7.7373 5.95874 9.17908 4.51696 10.9576 4.51696C12.7362 4.51696 14.178 5.95874 14.178 7.7373Z" stroke="#8D30B9" stroke-width="2" stroke-miterlimit="10" stroke-linecap="round" stroke-linejoin="round"/>
</svg>
