<svg width="26" height="26" viewBox="0 0 26 26" fill="none" xmlns="http://www.w3.org/2000/svg">
<path d="M13 25C19.617 25 25 19.617 25 13C25 6.383 19.617 1 13 1C6.383 1 1 6.383 1 13C1 19.617 6.383 25 13 25Z" fill="#25A7F0"/>
<path d="M13 2.5C7.21 2.5 2.5 7.21 2.5 13C2.5 18.79 7.21 23.5 13 23.5M13 25C19.617 25 25 19.617 25 13C25 6.383 19.617 1 13 1C6.383 1 1 6.383 1 13C1 19.617 6.383 25 13 25Z" stroke="#25A7F0" stroke-width="0.5"/>
<path d="M8.89597 15.155L10.464 14.474L10.024 14.915C9.88297 15.056 9.80397 15.247 9.80397 15.445V18.38C9.80397 19.052 10.616 19.378 11.084 18.91L12.658 17.336L16.088 19.051C16.532 19.273 17.069 19.01 17.161 18.514L19.118 7.75301C19.221 7.17401 18.651 6.70601 18.106 6.92001L5.38997 11.897C4.81997 12.119 4.74397 12.899 5.25997 13.228L8.19397 15.1C8.40397 15.234 8.66897 15.255 8.89597 15.155ZM17.402 8.80801L15.865 17.263L12.845 15.754C12.553 15.608 12.205 15.669 11.98 15.895L11.304 16.571V15.758L14.311 12.751C14.894 12.168 14.238 11.206 13.482 11.533L8.66497 13.623L7.31097 12.759L17.402 8.80801Z" fill="white" stroke="#25A7F0" stroke-width="0.5"/>
</svg>
