<svg width="24" height="24" viewBox="0 0 24 24" fill="none" xmlns="http://www.w3.org/2000/svg">
<path d="M20.5344 3.53001C18.5204 1.51199 15.8458 0.274407 12.993 0.0404876C10.1402 -0.193431 7.29701 0.591713 4.97634 2.2543C2.65567 3.91689 1.01025 6.34747 0.336877 9.10762C-0.336495 11.8678 0.00650907 14.7758 1.30402 17.3071L0.0303509 23.4417C0.0171352 23.5028 0.0167609 23.5659 0.0292516 23.6271C0.0417423 23.6883 0.0668289 23.7463 0.102943 23.7974C0.155847 23.8751 0.231365 23.9348 0.319412 23.9688C0.407458 24.0027 0.503842 24.0092 0.595692 23.9873L6.65606 22.5622C9.20046 23.8169 12.111 24.1353 14.8698 23.4608C17.6287 22.7863 20.0568 21.1627 21.7222 18.8788C23.3876 16.5949 24.1823 13.7989 23.9648 10.9884C23.7473 8.17779 22.5317 5.53491 20.5344 3.53001Z" fill="#37D259"/>
<path d="M18.3151 15.7708C17.8598 16.4823 17.1405 17.353 16.2364 17.5691C14.6525 17.9488 12.2218 17.5822 9.19709 14.7844L9.15969 14.7517C6.50016 12.3053 5.80944 10.2691 5.97662 8.6542C6.06901 7.73761 6.83893 6.90832 7.48786 6.3671C7.59046 6.28023 7.71212 6.21838 7.84311 6.1865C7.97411 6.15462 8.11081 6.15359 8.24228 6.18349C8.37375 6.2134 8.49634 6.2734 8.60026 6.35872C8.70417 6.44403 8.78652 6.55228 8.84072 6.67481L9.81962 8.85716C9.88323 8.99866 9.90681 9.15467 9.88782 9.30846C9.86883 9.46225 9.80799 9.60801 9.71183 9.73009L9.21688 10.3673C9.11068 10.4989 9.0466 10.659 9.03288 10.827C9.01916 10.995 9.05642 11.1633 9.13989 11.3101C9.41706 11.7924 10.0814 12.5017 10.8183 13.1586C11.6454 13.9006 12.5627 14.5793 13.1435 14.8106C13.2989 14.8736 13.4697 14.8889 13.634 14.8547C13.7983 14.8205 13.9485 14.7382 14.0652 14.6185L14.6393 14.0446C14.7501 13.9362 14.8879 13.8589 15.0386 13.8206C15.1893 13.7822 15.3476 13.7842 15.4972 13.8264L17.8224 14.4811C17.9507 14.5201 18.0682 14.5877 18.1661 14.6787C18.264 14.7697 18.3396 14.8818 18.3871 15.0062C18.4347 15.1307 18.4529 15.2643 18.4404 15.3968C18.428 15.5293 18.3851 15.6573 18.3151 15.7708Z" fill="white"/>
</svg>
