<svg width="83" height="80" viewBox="0 0 83 80" fill="none" xmlns="http://www.w3.org/2000/svg">
<path d="M57.02 3.21809C57.8788 2.32658 59.3806 2.69901 59.7233 3.88847L78.1952 68.003C78.5379 69.1925 77.4645 70.3069 76.263 70.0089L11.5025 53.9489C10.301 53.6509 9.87265 52.1641 10.7314 51.2726L57.02 3.21809Z" stroke="#FFD749" stroke-width="2"/>
<rect x="2.69238" y="34.3809" width="41.4932" height="41.4934" rx="8.83688" fill="#8D30B9" stroke="#8D30B9" stroke-width="2"/>
<path fill-rule="evenodd" clip-rule="evenodd" d="M14.7968 63.2013C14.4735 63.5383 14.4846 64.0736 14.8215 64.3969C18.3703 67.8018 22.0357 68.5123 25.1278 68.0551C28.1708 67.6053 30.5979 66.037 31.8002 64.9626C32.1485 64.6514 32.1785 64.1169 31.8674 63.7686C31.5562 63.4204 31.0216 63.3903 30.6734 63.7015C29.652 64.6142 27.519 65.992 24.8805 66.3821C22.291 66.7649 19.1533 66.2092 15.9924 63.1765C15.6554 62.8532 15.1201 62.8643 14.7968 63.2013Z" fill="white"/>
<path d="M34.7192 49.6394C35.9746 50.6767 35.9749 52.4985 34.7199 53.5362C32.3178 55.5223 28.0847 58.313 23.2633 58.313C18.4413 58.313 14.2056 55.5216 11.8021 53.5355C10.5468 52.4982 10.5464 50.6763 11.8014 49.6387C14.2035 47.6526 18.4366 44.8618 23.258 44.8618C28.08 44.8618 32.3157 47.6532 34.7192 49.6394Z" fill="white"/>
<path d="M23.2607 57.4725C26.3947 57.4725 28.9354 54.8377 28.9354 51.5876C28.9354 48.3374 26.3947 45.7026 23.2607 45.7026C20.1266 45.7026 17.5859 48.3374 17.5859 51.5876C17.5859 54.8377 20.1266 57.4725 23.2607 57.4725Z" fill="#33DFC0"/>
<path d="M23.4713 54.1098C24.8642 54.1098 25.9934 52.8865 25.9934 51.3775C25.9934 49.8685 24.8642 48.6453 23.4713 48.6453C22.0784 48.6453 20.9492 49.8685 20.9492 51.3775C20.9492 52.8865 22.0784 54.1098 23.4713 54.1098Z" fill="#8D30B9"/>
<rect x="37.0898" y="11.4497" width="41.4932" height="41.4934" rx="20.7466" fill="#F44C75" stroke="#F44C75" stroke-width="2"/>
<path fill-rule="evenodd" clip-rule="evenodd" d="M49.1943 40.2701C48.8709 40.6071 48.882 41.1424 49.219 41.4657C52.7678 44.8706 56.4332 45.5811 59.5253 45.124C62.5683 44.6741 64.9954 43.1059 66.1977 42.0315C66.5459 41.7203 66.576 41.1857 66.2648 40.8375C65.9536 40.4892 65.4191 40.4592 65.0708 40.7704C64.0495 41.683 61.9165 43.0609 59.2779 43.451C56.6884 43.8338 53.5507 43.2781 50.3899 40.2454C50.0529 39.9221 49.5176 39.9331 49.1943 40.2701Z" fill="white"/>
<path d="M69.1167 26.7076C70.372 27.7449 70.3724 29.5668 69.1174 30.6044C66.7153 32.5905 62.4822 35.3813 57.6607 35.3813C52.8387 35.3813 48.603 32.5899 46.1995 30.6037C44.9442 29.5664 44.9438 27.7446 46.1988 26.7069C48.601 24.7208 52.834 21.9301 57.6555 21.9301C62.4775 21.9301 66.7132 24.7215 69.1167 26.7076Z" fill="white"/>
<path d="M57.6581 34.5405C60.7922 34.5405 63.3328 31.9057 63.3328 28.6555C63.3328 25.4054 60.7922 22.7706 57.6581 22.7706C54.5241 22.7706 51.9834 25.4054 51.9834 28.6555C51.9834 31.9057 54.5241 34.5405 57.6581 34.5405Z" fill="#33DFC0"/>
<path d="M57.8688 31.1786C59.2617 31.1786 60.3909 29.9553 60.3909 28.4463C60.3909 26.9373 59.2617 25.714 57.8688 25.714C56.4759 25.714 55.3467 26.9373 55.3467 28.4463C55.3467 29.9553 56.4759 31.1786 57.8688 31.1786Z" fill="#8D30B9"/>
</svg>
