<svg width="80" height="66" viewBox="0 0 80 66" fill="none" xmlns="http://www.w3.org/2000/svg">
<rect x="52.6128" y="42.9354" width="27.3676" height="14.9851" rx="1.46196" transform="rotate(11.7355 52.6128 42.9354)" fill="#21D373"/>
<rect x="55.9058" y="39.455" width="4.20925" height="6.38097" rx="1.46196" transform="rotate(11.7355 55.9058 39.455)" fill="#21D373"/>
<rect x="64.9697" y="41.0482" width="4.20925" height="6.38097" rx="1.46196" transform="rotate(11.7355 64.9697 41.0482)" fill="#21D373"/>
<rect x="74.0337" y="42.6415" width="4.20925" height="6.38097" rx="1.46196" transform="rotate(11.7355 74.0337 42.6415)" fill="#21D373"/>
<rect x="3.13428" y="46.5934" width="27.3676" height="14.9851" rx="1.46196" transform="rotate(-6.81379 3.13428 46.5934)" fill="#FF3B6A"/>
<rect x="5.14893" y="42.2462" width="4.20925" height="6.38096" rx="1.46196" transform="rotate(-6.81379 5.14893 42.2462)" fill="#FF3B6A"/>
<rect x="14.2485" y="40.8733" width="4.20925" height="6.38096" rx="1.46196" transform="rotate(-6.81379 14.2485 40.8733)" fill="#FF3B6A"/>
<rect x="23.3486" y="39.5004" width="4.20925" height="6.38096" rx="1.46196" transform="rotate(-6.81379 23.3486 39.5004)" fill="#FF3B6A"/>
<rect x="52.043" y="26.7441" width="33.0585" height="18.8919" rx="1.46196" transform="rotate(93.2048 52.043 26.7441)" fill="#21D373"/>
<path d="M41.1159 29.5179C38.9114 29.8664 38.8834 33.5047 39.1917 37.5621C39.2173 37.8986 39.543 38.1454 39.923 38.1179L43.5284 37.8569C43.9139 37.829 44.2122 37.5299 44.1899 37.1882C43.9817 33.9951 43.2841 29.1751 41.1159 29.5179Z" fill="#F3FF69"/>
<path d="M43.2994 43.9652C41.3895 43.7643 40.4927 47.2078 39.7739 51.1299C39.7143 51.4552 39.9248 51.7677 40.2462 51.8332L43.2957 52.4547C43.6218 52.5212 43.9408 52.3094 44.0043 51.98C44.5985 48.9018 45.178 44.1628 43.2994 43.9652Z" fill="#F3FF69"/>
<path d="M49.4837 9.3088L33.8703 21.1488C33.1419 21.7011 33.3694 22.8498 34.2533 23.0827L55.6061 28.7113C56.4468 28.9329 57.1987 28.1348 56.9273 27.3088L51.1879 9.84022C50.9529 9.12499 50.0836 8.8539 49.4837 9.3088Z" fill="#FF3B6A"/>
<path d="M52.8331 0.421509L50.6401 9.74153" stroke="#FF3B6A" stroke-width="0.730982" stroke-linecap="round" stroke-linejoin="round"/>
<path d="M59.0246 2.58672L52.6502 1.15247L51.5537 6.26934L57.5505 7.89008C57.8515 7.97145 58.1096 7.66263 57.9761 7.38079L56.8172 4.93422C56.7348 4.76009 56.8016 4.55184 56.97 4.45826L59.1219 3.26279C59.4154 3.09973 59.3522 2.66042 59.0246 2.58672Z" fill="#FF3B6A"/>
</svg>
