<svg width="87" height="80" viewBox="0 0 87 80" fill="none" xmlns="http://www.w3.org/2000/svg">
<ellipse cx="42.8045" cy="15.7473" rx="15.7937" ry="15.4177" fill="#8D30B9"/>
<path d="M54.6492 13.9202C56.0029 14.9513 56.0033 16.8671 54.6499 17.8985C52.1194 19.827 47.7532 22.4627 42.7909 22.4627C37.8279 22.4627 33.459 19.8263 30.9271 17.8978C29.5734 16.8667 29.573 14.9509 30.9265 13.9194C33.4569 11.991 37.8231 9.35522 42.7854 9.35522C47.7484 9.35522 52.1173 11.9917 54.6492 13.9202Z" fill="white"/>
<path d="M42.7854 21.6101C46.0418 21.6101 48.6816 19.0576 48.6816 15.9089C48.6816 12.7603 46.0418 10.2078 42.7854 10.2078C39.529 10.2078 36.8892 12.7603 36.8892 15.9089C36.8892 19.0576 39.529 21.6101 42.7854 21.6101Z" fill="#33DFC0"/>
<path d="M42.785 18.5341C44.2854 18.5341 45.5017 17.359 45.5017 15.9095C45.5017 14.46 44.2854 13.2849 42.785 13.2849C41.2847 13.2849 40.0684 14.46 40.0684 15.9095C40.0684 17.359 41.2847 18.5341 42.785 18.5341Z" fill="#8D30B9"/>
<path d="M22.4983 7.09863H20.308C19.0255 7.09863 17.9858 8.13831 17.9858 9.42082V22.8264C17.9858 24.1089 19.0255 25.1486 20.308 25.1486H22.4983" stroke="#8D30B9" stroke-width="2"/>
<path d="M63.1104 7.09863H66.0528C67.3353 7.09863 68.375 8.13831 68.375 9.42082V22.8264C68.375 24.1089 67.3353 25.1486 66.0528 25.1486H63.1104" stroke="#8D30B9" stroke-width="2"/>
<rect x="31.2749" y="58.7443" width="23.0583" height="19.2979" rx="3.32219" fill="#8D30B9" stroke="#8D30B9" stroke-width="2"/>
<rect x="1.19189" y="58.7443" width="22.3062" height="19.2979" rx="3.32219" fill="#8D30B9" stroke="#8D30B9" stroke-width="2"/>
<rect x="62.1104" y="58.7443" width="23.0583" height="19.2979" rx="3.32219" fill="#8D30B9" stroke="#8D30B9" stroke-width="2"/>
<path d="M43.5566 31.1652V58.2401" stroke="#8D30B9" stroke-width="2"/>
<path d="M11.9688 58.24V49.3249C11.9688 47.1874 13.7016 45.4546 15.8391 45.4546H69.7691C71.9066 45.4546 73.6394 47.1874 73.6394 49.3249V58.24" stroke="#8D30B9" stroke-width="2"/>
<path d="M38.292 68.1673L40.6735 70.3446C41.5606 71.1558 42.9202 71.1558 43.8074 70.3446L48.8211 65.7606" stroke="white" stroke-width="2"/>
<path d="M8.2085 68.1673L10.2456 70.1731C11.1495 71.063 12.6003 71.063 13.5042 70.1731L17.9856 65.7606" stroke="white" stroke-width="2"/>
<path d="M69.8789 68.1673L72.2604 70.3446C73.1476 71.1558 74.5071 71.1558 75.3943 70.3446L80.408 65.7606" stroke="white" stroke-width="2"/>
</svg>
