<svg width="76" height="82" viewBox="0 0 76 82" fill="none" xmlns="http://www.w3.org/2000/svg">
<path d="M44.8709 57.7742H42.2903C40.1524 57.7742 38.4192 59.5073 38.4192 61.6451C38.4192 59.5073 36.6861 57.7742 34.5483 57.7742H31.9676C29.8298 57.7742 28.0967 56.0411 28.0967 53.9033V37.1291C28.0967 36.4165 28.6744 35.8388 29.387 35.8388H47.4515C48.1641 35.8388 48.7418 36.4165 48.7418 37.1291V53.9033C48.7418 56.0411 47.0087 57.7742 44.8709 57.7742Z" stroke="#8D30B9" stroke-width="2" stroke-miterlimit="10" stroke-linecap="round" stroke-linejoin="round"/>
<path d="M34.5479 19.0644H26.0502C24.9006 19.0644 24.325 20.4543 25.1379 21.2672L28.9439 25.0733C30.8797 27.0092 31.9673 29.6347 31.9673 32.3724V35.8386" stroke="#8D30B9" stroke-width="2" stroke-miterlimit="10" stroke-linecap="round" stroke-linejoin="round"/>
<path d="M38.4192 35.8386V32.6855C38.4192 28.9211 36.9237 25.311 34.2619 22.6493L30.6772 19.0644" stroke="#8D30B9" stroke-width="2" stroke-miterlimit="10" stroke-linecap="round" stroke-linejoin="round"/>
<path d="M24.2259 20.355H22.9356C21.5102 20.355 20.355 21.5104 20.355 22.9357V26.8066C20.355 25.3815 21.5102 24.226 22.9356 24.226H28.0968" stroke="#8D30B9" stroke-width="2" stroke-miterlimit="10" stroke-linecap="round" stroke-linejoin="round"/>
<path d="M30.6772 15.8387C30.6772 17.6203 29.2331 19.0645 27.4515 19.0645C25.6699 19.0645 24.2256 17.6203 24.2256 15.8387C24.2256 14.0571 25.6699 12.6128 27.4515 12.6128C29.2331 12.6128 30.6772 14.0571 30.6772 15.8387Z" stroke="#8D30B9" stroke-width="2" stroke-miterlimit="10" stroke-linecap="round" stroke-linejoin="round"/>
<path d="M27.4517 10.0324V12.613" stroke="#8D30B9" stroke-width="2" stroke-miterlimit="10" stroke-linecap="round" stroke-linejoin="round"/>
<path d="M15.9411 33.3089L3.58055 24.2261C3.58055 24.2261 2.77411 30.5969 7.04823 35.7583" stroke="#8D30B9" stroke-width="2" stroke-miterlimit="10" stroke-linecap="round" stroke-linejoin="round"/>
<path d="M23.9573 39.199L20.3613 36.5564" stroke="#8D30B9" stroke-width="2" stroke-miterlimit="10" stroke-linecap="round" stroke-linejoin="round"/>
<path d="M27.9355 46.4836L2.29053 33.2579C2.29053 33.2579 3.9034 40.5967 9.46782 43.4192" stroke="#8D30B9" stroke-width="2" stroke-miterlimit="10" stroke-linecap="round" stroke-linejoin="round"/>
<path d="M21.6449 43.5807H6.16113C6.16113 43.5807 8.01594 47.4516 12.9352 48.8225" stroke="#8D30B9" stroke-width="2" stroke-miterlimit="10" stroke-linecap="round" stroke-linejoin="round"/>
<path d="M21.8604 43.3924L11.3228 50.0323C11.3228 50.0323 16.8872 52.4516 21.9679 49.871" stroke="#8D30B9" stroke-width="2" stroke-miterlimit="10" stroke-linecap="round" stroke-linejoin="round"/>
<path d="M24.4679 45.2742L21.269 51.9409C21.269 51.9409 25.6373 51.6856 27.976 49.0242" stroke="#8D30B9" stroke-width="2" stroke-miterlimit="10" stroke-linecap="round" stroke-linejoin="round"/>
<path d="M28.0969 37.1286C28.097 37.7892 27.8451 38.4498 27.341 38.9537C26.3332 39.9617 24.6994 39.9617 23.6914 38.9537C22.6838 37.9461 22.6838 36.312 23.6914 35.3043L6.16145 15.1936C6.16145 15.1936 4.60234 21.3494 7.98938 27.4785" stroke="#8D30B9" stroke-width="2" stroke-miterlimit="10" stroke-linecap="round" stroke-linejoin="round"/>
<path d="M28.0966 54.3437C25.0894 55.4064 22.9351 58.2742 22.9351 61.6453H29.387C29.387 59.5073 31.1202 57.7742 33.2579 57.7742" stroke="#8D30B9" stroke-width="2" stroke-miterlimit="10" stroke-linecap="round" stroke-linejoin="round"/>
<path d="M26.8064 61.6452V64.2258C26.8064 65.651 25.651 66.8064 24.2258 66.8064H16.2017" stroke="#8D30B9" stroke-width="2" stroke-miterlimit="10" stroke-linecap="round" stroke-linejoin="round"/>
<path d="M38.4194 61.6452V81" stroke="#8D30B9" stroke-width="2" stroke-miterlimit="10" stroke-linecap="round" stroke-linejoin="round"/>
<path d="M33.2583 78.4192V73.8841C33.2583 71.8307 34.0739 69.8616 35.5258 68.4097L36.1521 67.7836C37.604 66.3316 38.4197 64.3624 38.4197 62.3093V61.6451" stroke="#8D30B9" stroke-width="2" stroke-miterlimit="10" stroke-linecap="round" stroke-linejoin="round"/>
<path d="M28.0967 77.1289V73.5379C28.0967 71.7583 29.0134 70.1044 30.5224 69.1611L35.9935 65.7419C37.5025 64.7986 38.4192 63.1447 38.4192 61.3651V60.3547" stroke="#8D30B9" stroke-width="2" stroke-miterlimit="10" stroke-linecap="round" stroke-linejoin="round"/>
<path d="M42.29 19.0644H50.7877C51.9373 19.0644 52.513 20.4543 51.7001 21.2672L47.8941 25.0733C45.9583 27.0092 44.8706 29.6347 44.8706 32.3724V35.8386" stroke="#8D30B9" stroke-width="2" stroke-miterlimit="10" stroke-linecap="round" stroke-linejoin="round"/>
<path d="M38.4194 35.8386V32.6855C38.4194 28.9211 39.9148 25.311 42.5765 22.6493L46.1614 19.0644" stroke="#8D30B9" stroke-width="2" stroke-miterlimit="10" stroke-linecap="round" stroke-linejoin="round"/>
<path d="M52.6126 20.355H53.9029C55.3282 20.355 56.4835 21.5104 56.4835 22.9357V26.8066C56.4835 25.3815 55.3282 24.226 53.9029 24.226H48.7417" stroke="#8D30B9" stroke-width="2" stroke-miterlimit="10" stroke-linecap="round" stroke-linejoin="round"/>
<path d="M66.8018 28.9701L73.2581 24.2258C73.2581 24.2258 74.0647 30.5967 69.7904 35.7581" stroke="#8D30B9" stroke-width="2" stroke-miterlimit="10" stroke-linecap="round" stroke-linejoin="round"/>
<path d="M52.8818 39.199L62.6 32.0579" stroke="#8D30B9" stroke-width="2" stroke-miterlimit="10" stroke-linecap="round" stroke-linejoin="round"/>
<path d="M48.9033 46.4836L74.5483 33.2579C74.5483 33.2579 72.9355 40.5967 67.3711 43.4192" stroke="#8D30B9" stroke-width="2" stroke-miterlimit="10" stroke-linecap="round" stroke-linejoin="round"/>
<path d="M55.1934 43.5807H70.6771C70.6771 43.5807 68.8223 47.4516 63.903 48.8225" stroke="#8D30B9" stroke-width="2" stroke-miterlimit="10" stroke-linecap="round" stroke-linejoin="round"/>
<path d="M54.9786 43.3924L65.5162 50.0323C65.5162 50.0323 59.9518 52.4516 54.8711 49.871" stroke="#8D30B9" stroke-width="2" stroke-miterlimit="10" stroke-linecap="round" stroke-linejoin="round"/>
<path d="M52.3709 45.2742L55.5697 51.9409C55.5697 51.9409 51.2015 51.6856 48.8628 49.0242" stroke="#8D30B9" stroke-width="2" stroke-miterlimit="10" stroke-linecap="round" stroke-linejoin="round"/>
<path d="M48.7417 37.1286C48.7415 37.7892 48.9934 38.4498 49.4976 38.9537C50.5054 39.9617 52.1394 39.9617 53.1472 38.9537C54.155 37.9461 54.155 36.312 53.1472 35.3043L70.6771 15.1936C70.6771 15.1936 72.2362 21.3494 68.8492 27.4785" stroke="#8D30B9" stroke-width="2" stroke-miterlimit="10" stroke-linecap="round" stroke-linejoin="round"/>
<path d="M48.7419 54.3437C51.7491 55.4064 53.9034 58.2742 53.9034 61.6453H47.4515C47.4515 59.5073 45.7183 57.7742 43.5806 57.7742" stroke="#8D30B9" stroke-width="2" stroke-miterlimit="10" stroke-linecap="round" stroke-linejoin="round"/>
<path d="M50.0322 61.6454V64.226C50.0322 65.6511 51.1876 66.8066 52.7339 66.7663H59.9516" stroke="#8D30B9" stroke-width="2" stroke-miterlimit="10" stroke-linecap="round" stroke-linejoin="round"/>
<path d="M43.5806 78.4192V73.8841C43.5806 71.8307 42.765 69.8616 41.3131 68.4097L40.6868 67.7836C39.2349 66.3316 38.4194 64.3624 38.4194 62.3093V61.6451" stroke="#8D30B9" stroke-width="2" stroke-miterlimit="10" stroke-linecap="round" stroke-linejoin="round"/>
<path d="M48.742 77.1289V73.5379C48.742 71.7583 47.8253 70.1044 46.3162 69.1611L40.8452 65.7419C39.3361 64.7986 38.4194 63.1447 38.4194 61.3651V60.3547" stroke="#8D30B9" stroke-width="2" stroke-miterlimit="10" stroke-linecap="round" stroke-linejoin="round"/>
<path d="M38.4194 0.999986V8.74194" stroke="#8D30B9" stroke-width="2" stroke-miterlimit="10" stroke-linecap="round" stroke-linejoin="round"/>
<path d="M37.1289 2.29053H39.7097" stroke="#8D30B9" stroke-width="2" stroke-miterlimit="10" stroke-linecap="round" stroke-linejoin="round"/>
<path d="M43.5015 9.38486C43.2744 8.45641 42.4943 7.70647 41.5589 7.51025C40.5349 7.29569 39.5858 7.68828 39.0051 8.39524C38.7042 8.7616 38.1349 8.7616 37.834 8.39524C37.2533 7.68828 36.3042 7.29569 35.2802 7.51025C34.3448 7.70647 33.5648 8.45641 33.3376 9.38486C33.084 10.4224 33.4604 11.3784 34.1566 11.9764C34.4204 12.2029 34.5486 12.5498 34.5486 12.8974V13.9033H42.2905V12.8974C42.2905 12.5498 42.4185 12.2029 42.6825 11.9764C43.3787 11.3784 43.7552 10.4224 43.5015 9.38486Z" stroke="#8D30B9" stroke-width="2" stroke-miterlimit="10" stroke-linecap="round" stroke-linejoin="round"/>
<path d="M66.8064 64.226C66.8064 66.3638 65.0733 68.0969 62.9355 68.0969C60.7976 68.0969 59.0645 66.3638 59.0645 64.226C59.0645 62.0881 60.7976 60.355 62.9355 60.355C65.0733 60.355 66.8064 62.0881 66.8064 64.226Z" stroke="#8D30B9" stroke-width="2" stroke-miterlimit="10" stroke-linecap="round" stroke-linejoin="round"/>
<path d="M62.9355 57.7741V60.3547" stroke="#8D30B9" stroke-width="2" stroke-miterlimit="10" stroke-linecap="round" stroke-linejoin="round"/>
<path d="M5.24512 53.4032L19.0646 70.6775" stroke="#8D30B9" stroke-width="2" stroke-miterlimit="10" stroke-linecap="round" stroke-linejoin="round"/>
<path d="M6.1612 51.3225C6.1612 52.7477 5.00579 53.9031 3.5806 53.9031C2.15525 53.9031 1 52.7477 1 51.3225C1 49.8973 2.15525 48.7419 3.5806 48.7419C5.00579 48.7419 6.1612 49.8973 6.1612 51.3225Z" stroke="#8D30B9" stroke-width="2" stroke-miterlimit="10" stroke-linecap="round" stroke-linejoin="round"/>
<path d="M33.2583 52.613V48.7421C33.2583 47.3168 34.4137 46.1614 35.8389 46.1614H41.0003V43.5808C41.0003 42.1556 42.1557 41.0002 43.5809 41.0002" stroke="#8D30B9" stroke-width="2" stroke-miterlimit="10" stroke-linecap="round" stroke-linejoin="round"/>
<path d="M37.1289 41.0002V52.613" stroke="#8D30B9" stroke-width="2" stroke-miterlimit="10" stroke-linecap="round" stroke-linejoin="round"/>
<path d="M39.7095 46.1613H43.5804L44.8707 48.7419" stroke="#8D30B9" stroke-width="2" stroke-miterlimit="10" stroke-linecap="round" stroke-linejoin="round"/>
<path d="M39.7095 46.1614L42.2901 52.613" stroke="#8D30B9" stroke-width="2" stroke-miterlimit="10" stroke-linecap="round" stroke-linejoin="round"/>
<path d="M35.8389 42.2905H37.1292" stroke="#8D30B9" stroke-width="2" stroke-miterlimit="10" stroke-linecap="round" stroke-linejoin="round"/>
<path d="M52.6128 15.8387C52.6128 17.6203 51.1684 19.0645 49.3869 19.0645C47.6055 19.0645 46.1611 17.6203 46.1611 15.8387C46.1611 14.0571 47.6055 12.6128 49.3869 12.6128C51.1684 12.6128 52.6128 14.0571 52.6128 15.8387Z" stroke="#8D30B9" stroke-width="2" stroke-miterlimit="10" stroke-linecap="round" stroke-linejoin="round"/>
<path d="M49.3867 10.0324V12.613" stroke="#8D30B9" stroke-width="2" stroke-miterlimit="10" stroke-linecap="round" stroke-linejoin="round"/>
</svg>
