<svg width="815" height="250" viewBox="0 0 815 250" fill="none" xmlns="http://www.w3.org/2000/svg">
<path d="M528.212 25.2939L534.545 14.3252H521.879L528.212 25.2939Z" fill="#8D30B9"/>
<path d="M589.637 76.4813L595.97 65.5126H583.304L589.637 76.4813Z" fill="#8D30B9"/>
<path d="M735.887 54.5438L742.22 43.5751H729.554L735.887 54.5438Z" fill="#8D30B9"/>
<path d="M560.387 129.131L566.72 118.163H554.054L560.387 129.131Z" fill="#8D30B9"/>
<path d="M147.963 136.444L154.296 125.475H141.63L147.963 136.444Z" fill="#8D30B9"/>
<path d="M237.175 249.056L243.508 238.087H230.842L237.175 249.056Z" fill="#8D30B9"/>
<path d="M572.087 228.581L578.42 217.613H565.754L572.087 228.581Z" fill="#8D30B9"/>
<path d="M664.225 15.0565L670.557 4.08778H657.892L664.225 15.0565Z" fill="#8D30B9"/>
<path d="M384.888 136.444L391.221 125.475H378.555L384.888 136.444Z" fill="#8D30B9"/>
<path d="M147.312 107.194L153.645 96.2251H140.98L147.312 107.194Z" fill="#8D30B9"/>
<path d="M7.5625 161.306L13.8953 150.338H1.22969L7.5625 161.306Z" fill="#8D30B9"/>
<path d="M656.912 45.769L663.245 34.8003H650.579L656.912 45.769Z" fill="#8D30B9"/>
<path d="M807.55 133.519L813.883 122.55H801.217L807.55 133.519Z" fill="#8D30B9"/>
<path d="M586.712 31.144L593.045 20.1753H580.379L586.712 31.144Z" fill="#8D30B9"/>
</svg>
