<svg width="74" height="80" viewBox="0 0 74 80" fill="none" xmlns="http://www.w3.org/2000/svg">
<path d="M35.9847 69.558C52.3864 69.558 65.6827 56.7392 65.6827 40.9264C65.6827 25.1135 52.3864 12.2947 35.9847 12.2947C19.5829 12.2947 6.28662 25.1135 6.28662 40.9264C6.28662 56.7392 19.5829 69.558 35.9847 69.558Z" fill="#8D30B9"/>
<path d="M35.9851 62.8074C48.5208 62.8074 58.683 53.0102 58.683 40.9246C58.683 28.8391 48.5208 19.0419 35.9851 19.0419C23.4493 19.0419 13.2871 28.8391 13.2871 40.9246C13.2871 53.0102 23.4493 62.8074 35.9851 62.8074Z" fill="white"/>
<path d="M35.9845 24.5865C35.4201 24.5865 34.9629 24.1455 34.9629 23.6016V19.0475C34.9629 18.5036 35.4203 18.0626 35.9845 18.0626C36.5487 18.0626 37.0061 18.5036 37.0061 19.0475V23.6014C37.0061 24.1454 36.5489 24.5865 35.9845 24.5865Z" fill="#8D30B9"/>
<path d="M35.9845 63.7869C35.4201 63.7869 34.9629 63.346 34.9629 62.802V58.248C34.9629 57.704 35.4203 57.2631 35.9845 57.2631C36.5487 57.2631 37.0061 57.704 37.0061 58.248V62.802C37.0061 63.346 36.5489 63.7869 35.9845 63.7869Z" fill="#8D30B9"/>
<path d="M58.6773 41.9094H53.9537C53.3894 41.9094 52.9321 41.4684 52.9321 40.9244C52.9321 40.3804 53.3895 39.9395 53.9537 39.9395H58.6773C59.2417 39.9395 59.6989 40.3804 59.6989 40.9244C59.6989 41.4684 59.2415 41.9094 58.6773 41.9094Z" fill="#8D30B9"/>
<path d="M18.0153 41.9106H13.2916C12.7273 41.9106 12.27 41.4697 12.27 40.9257C12.27 40.3817 12.7274 39.9407 13.2916 39.9407H18.0152C18.5795 39.9407 19.0368 40.3817 19.0368 40.9257C19.0368 41.4697 18.5795 41.9106 18.0153 41.9106Z" fill="#8D30B9"/>
<path d="M50.3413 28.0738C50.0007 28.1669 49.6228 28.0871 49.357 27.8321C48.9605 27.452 48.9632 26.8268 49.3628 26.4356L51.3374 24.5022C51.7368 24.111 52.3824 24.1017 52.7786 24.4819C53.1751 24.862 53.1724 25.4872 52.7728 25.8784L50.7982 27.8118C50.6668 27.9407 50.5085 28.0281 50.3413 28.0738Z" fill="#8D30B9"/>
<path d="M20.1738 57.6112C19.8333 57.7043 19.4553 57.6245 19.1895 57.3695C18.793 56.9894 18.7958 56.3642 19.1953 55.973L21.1699 54.0396C21.5693 53.6483 22.2149 53.6391 22.6111 54.0192C23.0076 54.3993 23.0049 55.0245 22.6054 55.4157L20.6308 57.3491C20.4993 57.478 20.341 57.5654 20.1738 57.6112Z" fill="#8D30B9"/>
<path d="M22.2623 28.4706C21.9218 28.5638 21.5438 28.484 21.278 28.229L19.3194 26.3512C18.9229 25.9711 18.9256 25.3459 19.3251 24.9547C19.7244 24.5635 20.3702 24.5542 20.7664 24.9344L22.725 26.8121C23.1215 27.1922 23.1188 27.8174 22.7193 28.2086C22.5878 28.3375 22.4295 28.4249 22.2623 28.4706Z" fill="#8D30B9"/>
<path d="M52.1886 57.1589C51.848 57.252 51.47 57.1722 51.2043 56.9172L49.2456 55.0394C48.8491 54.6594 48.8518 54.0341 49.2514 53.643C49.6507 53.2517 50.2964 53.2425 50.6926 53.6226L52.6513 55.5004C53.0478 55.8805 53.0451 56.5057 52.6455 56.8969C52.5141 57.0257 52.3558 57.1131 52.1886 57.1589Z" fill="#8D30B9"/>
<path d="M48.8614 37.6352C46.4473 35.2081 41.6415 31.2051 35.986 31.2051C30.3304 31.2051 25.5246 35.2081 23.1105 37.6352C21.6106 39.1433 21.6106 41.5088 23.1105 43.0169C25.5246 45.444 30.3304 49.447 35.986 49.447C41.6415 49.447 46.4473 45.444 48.8614 43.0169C50.3614 41.5088 50.3614 39.1433 48.8614 37.6352Z" fill="white" stroke="#8D30B9" stroke-width="2"/>
<path d="M42.0404 40.3257C42.0404 36.962 39.212 34.2351 35.7229 34.2351C32.2337 34.2351 29.4053 36.962 29.4053 40.3257C29.4053 43.6895 32.2337 46.4164 35.7229 46.4164C39.212 46.4164 42.0404 43.6895 42.0404 40.3257Z" fill="#FF3B6A"/>
<path d="M38.8815 40.3268C38.8815 38.6448 37.4673 37.2813 35.7228 37.2813C33.9782 37.2813 32.564 38.6448 32.564 40.3268C32.564 42.0088 33.9782 43.3723 35.7228 43.3723C37.4673 43.3723 38.8815 42.0088 38.8815 40.3268Z" fill="#8D30B9"/>
<path d="M52.85 62.5992C56.604 64.5757 64.0786 70.4612 63.9452 78.191L69.8527 74.3632" stroke="#8D30B9" stroke-width="2" stroke-linecap="round" stroke-linejoin="round"/>
<path d="M20.8702 61.2824C19.0889 65.1329 13.5948 72.8998 5.86846 73.1633L9.99437 78.8666" stroke="#8D30B9" stroke-width="2" stroke-linecap="round" stroke-linejoin="round"/>
<path d="M29.5633 2.70499C31.0583 3.54269 30.9354 5.53016 29.4922 6.45408L6.16331 21.3884C4.74684 22.2952 2.90751 21.6227 2.67782 19.9566C2.06874 15.5384 2.3638 7.59087 10.8077 2.86073C18.9863 -1.72078 25.9068 0.656045 29.5633 2.70499Z" fill="#8D30B9"/>
<path d="M42.7448 2.70621C41.2498 3.54392 41.3727 5.53138 42.8159 6.4553L66.1448 21.3897C67.5613 22.2964 69.4006 21.6239 69.6303 19.9578C70.2394 15.5396 69.9443 7.59209 61.5004 2.86196C53.3218 -1.71956 46.4013 0.657266 42.7448 2.70621Z" fill="#8D30B9"/>
</svg>
