<svg width="80" height="68" viewBox="0 0 80 68" fill="none" xmlns="http://www.w3.org/2000/svg">
<path d="M34.5914 37.0825C31.3352 37.1063 28.0962 36.6093 24.9969 35.6102C21.2044 34.358 18.84 32.6684 17.9088 31.9152C17.3792 32.4998 16.3419 33.4164 15.0318 33.4354C13.902 33.4506 12.8538 32.8122 11.9189 31.5348C11.8762 31.4763 11.8453 31.41 11.8282 31.3397C11.811 31.2693 11.8079 31.1963 11.819 31.1247C11.8301 31.0531 11.8551 30.9844 11.8928 30.9226C11.9304 30.8607 11.9798 30.8068 12.0383 30.7641C12.0967 30.7213 12.163 30.6904 12.2334 30.6733C12.3037 30.6561 12.3768 30.653 12.4484 30.6641C12.5199 30.6752 12.5886 30.7002 12.6505 30.7379C12.7124 30.7755 12.7662 30.8249 12.809 30.8834C13.5195 31.8542 14.2602 32.3416 15.0119 32.3327C16.3261 32.3166 17.3746 30.8299 17.3851 30.8149C17.4305 30.7495 17.4895 30.6947 17.558 30.6543C17.6266 30.6138 17.7031 30.5887 17.7822 30.5805C17.8614 30.5724 17.9414 30.5814 18.0167 30.6071C18.092 30.6327 18.1609 30.6743 18.2187 30.7291C18.2424 30.7515 20.6997 33.0428 25.4047 34.5834C29.7488 36.0058 36.9569 37.0615 46.6267 34.013C46.766 33.9698 46.9166 33.9836 47.0457 34.0512C47.1749 34.1189 47.2719 34.2349 47.3158 34.3739C47.3596 34.5129 47.3466 34.6636 47.2796 34.7931C47.2126 34.9226 47.0971 35.0202 46.9583 35.0648C42.2651 36.5445 38.1271 37.0825 34.5914 37.0825Z" fill="#1D1130"/>
<path d="M45.5995 67.8631L45.5957 67.8631L40.8234 67.8301C40.7509 67.8298 40.6791 67.8151 40.6122 67.7871C40.5454 67.759 40.4847 67.7179 40.4337 67.6664C40.3827 67.6148 40.3424 67.5537 40.3151 67.4865C40.2878 67.4193 40.2739 67.3474 40.2744 67.2749C40.2749 67.2024 40.2897 67.1307 40.318 67.0639C40.3462 66.9971 40.3874 66.9365 40.4391 66.8856C40.4907 66.8348 40.5519 66.7946 40.6192 66.7674C40.6864 66.7402 40.7584 66.7266 40.8309 66.7273L45.0272 66.7563C44.9549 63.9055 45.0313 51.6085 51.2504 43.4729C51.3392 43.3567 51.4706 43.2806 51.6155 43.2612C51.7605 43.2418 51.9073 43.2809 52.0235 43.3697C52.1397 43.4585 52.2158 43.5899 52.2352 43.7348C52.2545 43.8798 52.2155 44.0265 52.1267 44.1427C45.4488 52.8783 46.1423 67.1387 46.15 67.2817C46.1541 67.3565 46.1429 67.4314 46.117 67.5017C46.0912 67.5721 46.0513 67.6364 45.9998 67.6908C45.9483 67.7453 45.8862 67.7886 45.8174 67.8182C45.7485 67.8478 45.6744 67.8631 45.5995 67.8631Z" fill="#1D1130"/>
<path d="M75.0491 67.8302C74.9456 67.8303 74.8442 67.8013 74.7564 67.7464C74.6687 67.6916 74.5982 67.6131 74.5529 67.5201L72.6148 63.5394C70.9633 63.1046 62.168 60.5287 58.5585 54.1683C56.8634 51.1814 56.586 47.8127 57.7339 44.1558C57.7556 44.0867 57.7907 44.0226 57.8372 43.967C57.8836 43.9115 57.9406 43.8657 58.0048 43.8322C58.069 43.7986 58.1391 43.7781 58.2113 43.7717C58.2834 43.7653 58.3561 43.7732 58.4252 43.7948C58.4943 43.8165 58.5584 43.8516 58.614 43.8981C58.6695 43.9446 58.7153 44.0015 58.7489 44.0657C58.7824 44.1299 58.8029 44.2001 58.8093 44.2722C58.8157 44.3443 58.8079 44.417 58.7862 44.4861C57.7339 47.8381 57.9795 50.9114 59.5158 53.6207C63.1826 60.0868 73.0277 62.5078 73.1267 62.5315C73.206 62.5505 73.28 62.5867 73.3436 62.6377C73.4071 62.6887 73.4586 62.7532 73.4943 62.8265L75.5444 67.0373C75.5853 67.1213 75.6041 67.2144 75.5992 67.3077C75.5943 67.401 75.5657 67.4916 75.5162 67.5708C75.4667 67.6501 75.3978 67.7155 75.3161 67.7609C75.2344 67.8062 75.1426 67.8301 75.0491 67.8302Z" fill="#1D1130"/>
<path d="M55.0875 0.936682L27.0789 41.5004C26.8942 41.7678 26.7832 42.0792 26.757 42.4031C26.7308 42.727 26.7903 43.0522 26.9296 43.3458C27.0689 43.6395 27.283 43.8913 27.5505 44.0759C27.8179 44.2606 28.1292 44.3716 28.4532 44.3978L77.5867 48.3722C77.9106 48.3984 78.2357 48.3389 78.5294 48.1996C78.823 48.0603 79.0748 47.8462 79.2595 47.5787C79.4442 47.3113 79.5552 47 79.5814 46.676C79.6076 46.3521 79.548 46.027 79.4088 45.7333L58.2839 1.19524C58.1447 0.901594 57.9305 0.649781 57.6631 0.465118C57.3956 0.280456 57.0843 0.169438 56.7604 0.143235C56.4364 0.117032 56.1113 0.176565 55.8177 0.315842C55.524 0.45512 55.2722 0.669243 55.0875 0.936682Z" fill="url(#paint0_linear_98_349)"/>
<path d="M51.4022 35.9037C51.371 35.9037 51.34 35.9025 51.3086 35.8999C49.9079 35.7866 49.2056 33.2083 49.5191 29.3312C49.5278 29.2268 49.5775 29.13 49.6574 29.0622C49.7374 28.9944 49.841 28.9611 49.9454 28.9696C50.0499 28.978 50.1468 29.0275 50.2147 29.1073C50.2827 29.1871 50.3163 29.2906 50.3081 29.3951C49.9696 33.5799 50.8973 35.0726 51.3724 35.111C51.843 35.1501 53.0031 33.8252 53.3416 29.6405C53.3458 29.5887 53.3601 29.5382 53.3838 29.4919C53.4075 29.4456 53.4401 29.4045 53.4797 29.3708C53.5192 29.3372 53.5651 29.3116 53.6146 29.2957C53.664 29.2797 53.7162 29.2737 53.768 29.2779C53.8198 29.282 53.8702 29.2964 53.9165 29.3201C53.9628 29.3438 54.0039 29.3764 54.0376 29.416C54.0713 29.4556 54.0968 29.5014 54.1128 29.5509C54.1287 29.6003 54.1348 29.6525 54.1306 29.7043C53.824 33.4944 52.7584 35.9036 51.4022 35.9037Z" fill="#1D1130"/>
<path d="M34.0503 16.1362C33.9426 16.1361 33.8371 16.1045 33.7471 16.0452C33.6571 15.9859 33.5864 15.9015 33.5438 15.8025C33.5012 15.7035 33.4887 15.5941 33.5076 15.488C33.5265 15.3819 33.576 15.2836 33.6502 15.2054C34.7398 14.0559 35.2321 13.0098 35.074 12.1803C34.8952 11.2426 33.9292 10.7835 33.9194 10.779C33.7873 10.7178 33.6847 10.6068 33.634 10.4703C33.5834 10.3337 33.5888 10.1827 33.6491 10.0501C33.7094 9.91754 33.8197 9.81421 33.9559 9.7627C34.0922 9.71118 34.2433 9.71566 34.3762 9.77514C34.4367 9.80244 35.8605 10.4614 36.1545 11.9591C36.3927 13.1725 35.8195 14.52 34.4506 15.9641C34.3991 16.0185 34.3371 16.0619 34.2682 16.0915C34.1994 16.1211 34.1253 16.1363 34.0503 16.1362Z" fill="#1D1130"/>
<path d="M63.5877 21.4979C63.5877 21.4979 59.2111 27.2724 53.8122 27.2724C48.4133 27.2724 44.0366 21.4979 44.0366 21.4979C44.0366 21.4979 48.4133 14.8267 53.8122 14.8267C59.2111 14.8267 63.5877 21.4979 63.5877 21.4979Z" fill="white"/>
<mask id="mask0_98_349" style="mask-type:luminance" maskUnits="userSpaceOnUse" x="44" y="14" width="20" height="14">
<path d="M63.5877 21.4979C63.5877 21.4979 59.2111 27.2724 53.8122 27.2724C48.4133 27.2724 44.0366 21.4979 44.0366 21.4979C44.0366 21.4979 48.4133 14.8267 53.8122 14.8267C59.2111 14.8267 63.5877 21.4979 63.5877 21.4979Z" fill="white"/>
</mask>
<g mask="url(#mask0_98_349)">
<path d="M48.7332 26.8255C53.0443 26.8255 56.5392 23.7168 56.5392 19.882C56.5392 16.0472 53.0443 12.9385 48.7332 12.9385C44.4221 12.9385 40.9272 16.0472 40.9272 19.882C40.9272 23.7168 44.4221 26.8255 48.7332 26.8255Z" fill="#1D1130"/>
</g>
<path d="M69.3572 33.0173C69.259 33.0172 69.1626 32.9909 69.078 32.941C68.9933 32.8912 68.9235 32.8196 68.8758 32.7338C68.828 32.648 68.8041 32.5509 68.8064 32.4527C68.8087 32.3545 68.8372 32.2587 68.8889 32.1752C70.3202 29.6786 71.2704 26.9356 71.6903 24.0886C72.4842 18.1526 70.2796 13.4509 65.1379 10.1142C53.4309 2.517 34.5616 15.8961 34.3724 16.0322C34.3137 16.0745 34.2471 16.1048 34.1766 16.1213C34.1061 16.1379 34.033 16.1404 33.9616 16.1288C33.8901 16.1171 33.8216 16.0914 33.76 16.0533C33.6985 16.0152 33.6451 15.9653 33.6028 15.9065C33.5605 15.8477 33.5302 15.7812 33.5136 15.7107C33.4971 15.6402 33.4946 15.5671 33.5062 15.4956C33.5179 15.4242 33.5436 15.3557 33.5817 15.2941C33.6198 15.2326 33.6697 15.1791 33.7285 15.1368C37.2457 12.728 41.0201 10.718 44.9819 9.14404C53.4317 5.84499 60.6091 5.86053 65.7382 9.18906C72.6401 13.668 73.3764 19.8624 72.7786 24.2701C72.3444 27.2614 71.3422 30.142 69.8261 32.7568C69.7766 32.8366 69.7075 32.9024 69.6255 32.948C69.5434 32.9935 69.4511 33.0174 69.3572 33.0173Z" fill="#1D1130"/>
<path d="M6.5724 6.90234H30.5292C31.3031 6.90234 32.0453 7.20979 32.5925 7.75703C33.1398 8.30428 33.4472 9.04651 33.4472 9.82043V29.1333H3.6543V9.82043C3.6543 9.43722 3.72979 9.05777 3.87643 8.70373C4.02308 8.34969 4.238 8.02799 4.50897 7.75702C4.77994 7.48605 5.10164 7.27111 5.45568 7.12447C5.80972 6.97782 6.18919 6.90234 6.5724 6.90234Z" fill="white"/>
<path d="M33.4473 29.6844H3.65447C3.58205 29.6844 3.51033 29.6702 3.44342 29.6425C3.37652 29.6147 3.31573 29.5741 3.26453 29.5229C3.21332 29.4717 3.17269 29.4109 3.14498 29.344C3.11727 29.2771 3.10302 29.2054 3.10303 29.133V9.82012C3.10406 8.90026 3.46989 8.01837 4.12033 7.36793C4.77078 6.71749 5.65271 6.35162 6.57257 6.35059H30.5293C31.4492 6.35164 32.331 6.71752 32.9815 7.36796C33.6319 8.0184 33.9977 8.90028 33.9988 9.82012V29.133C33.9988 29.2054 33.9845 29.2771 33.9568 29.344C33.9291 29.4109 33.8885 29.4717 33.8373 29.5229C33.7861 29.5741 33.7252 29.6147 33.6583 29.6425C33.5914 29.6702 33.5198 29.6844 33.4473 29.6844ZM4.2059 28.5816H32.8959V9.82012C32.8952 9.19268 32.6456 8.59113 32.202 8.14745C31.7583 7.70376 31.1568 7.45419 30.5293 7.45346H6.57257C5.9451 7.45416 5.34352 7.70374 4.89983 8.14742C4.45615 8.5911 4.20661 9.19266 4.2059 9.82012V28.5816Z" fill="#1D1130"/>
<path d="M30.1853 9.5791H6.91632C6.5537 9.5791 6.25977 9.87306 6.25977 10.2357V25.0098C6.25977 25.3724 6.5537 25.6664 6.91632 25.6664H30.1853C30.5479 25.6664 30.8418 25.3724 30.8418 25.0098V10.2357C30.8418 9.87306 30.5479 9.5791 30.1853 9.5791Z" fill="#1D1130"/>
<path d="M35.1151 27.8306H2.26659C1.54712 27.8306 0.963867 28.4138 0.963867 29.1333C0.963867 29.8528 1.54712 30.436 2.26659 30.436H35.1151C35.8346 30.436 36.4178 29.8528 36.4178 29.1333C36.4178 28.4138 35.8346 27.8306 35.1151 27.8306Z" fill="white"/>
<path d="M35.1153 30.9871H2.26676C1.775 30.9871 1.30336 30.7918 0.955635 30.444C0.607914 30.0963 0.412598 29.6247 0.412598 29.133C0.412598 28.6412 0.607914 28.1696 0.955635 27.8219C1.30336 27.4742 1.775 27.2788 2.26676 27.2788H35.1153C35.607 27.2788 36.0786 27.4742 36.4263 27.8219C36.7741 28.1696 36.9694 28.6412 36.9694 29.133C36.9694 29.6247 36.7741 30.0963 36.4263 30.444C36.0786 30.7918 35.607 30.9871 35.1153 30.9871ZM2.26676 28.3817C2.0675 28.3817 1.8764 28.4608 1.73551 28.6017C1.59462 28.7426 1.51547 28.9337 1.51547 29.133C1.51547 29.3322 1.59462 29.5233 1.73551 29.6642C1.8764 29.8051 2.0675 29.8842 2.26676 29.8842H35.1153C35.3145 29.8842 35.5056 29.8051 35.6465 29.6642C35.7873 29.5233 35.8665 29.3322 35.8665 29.133C35.8665 28.9337 35.7873 28.7426 35.6465 28.6017C35.5056 28.4608 35.3145 28.3817 35.1153 28.3817H2.26676Z" fill="#1D1130"/>
<path d="M42.0718 27.6763C43.5475 27.6763 44.7437 27.1934 44.7437 26.5977C44.7437 26.002 43.5475 25.519 42.0718 25.519C40.5962 25.519 39.3999 26.002 39.3999 26.5977C39.3999 27.1934 40.5962 27.6763 42.0718 27.6763Z" fill="#FCA1FF"/>
<path d="M63.5877 29.0636C65.3653 29.0636 66.8064 28.5116 66.8064 27.8306C66.8064 27.1497 65.3653 26.5977 63.5877 26.5977C61.8101 26.5977 60.3691 27.1497 60.3691 27.8306C60.3691 28.5116 61.8101 29.0636 63.5877 29.0636Z" fill="#FCA1FF"/>
<path d="M18.7858 22.141C17.9583 22.141 14.0826 17.3066 14.0826 17.3066C13.697 16.7555 13.5462 16.0738 13.6632 15.4115C13.7802 14.7492 14.1556 14.1606 14.7066 13.775C15.2577 13.3894 15.9394 13.2386 16.6017 13.3556C17.264 13.4726 17.8526 13.8479 18.2382 14.399L18.7646 15.1512L19.2666 14.4189C19.6468 13.8642 20.2319 13.4833 20.893 13.3599C21.5542 13.2366 22.2373 13.3809 22.792 13.7612C23.3467 14.1415 23.7277 14.7265 23.851 15.3877C23.9744 16.0488 23.83 16.7319 23.4497 17.2866C23.4497 17.2866 19.6299 22.137 18.7979 22.1409L18.7858 22.141Z" fill="#FB76FF"/>
<path d="M11.5068 17.5996H8.54224C8.43728 17.5996 8.33659 17.5579 8.26237 17.4837C8.18815 17.4095 8.14648 17.3088 8.14648 17.2039C8.14648 17.0989 8.18815 16.9982 8.26237 16.924C8.33659 16.8498 8.43728 16.8081 8.54224 16.8081H11.5068C11.6117 16.8081 11.7124 16.8498 11.7866 16.924C11.8608 16.9982 11.9025 17.0989 11.9025 17.2039C11.9025 17.3088 11.8608 17.4095 11.7866 17.4837C11.7124 17.5579 11.6117 17.5996 11.5068 17.5996Z" fill="white"/>
<path d="M28.8399 17.9722H25.5793C25.4744 17.9722 25.3737 17.9305 25.2995 17.8563C25.2253 17.782 25.1836 17.6814 25.1836 17.5764C25.1836 17.4715 25.2253 17.3708 25.2995 17.2966C25.3737 17.2224 25.4744 17.1807 25.5793 17.1807H28.8399C28.9449 17.1807 29.0455 17.2224 29.1198 17.2966C29.194 17.3708 29.2357 17.4715 29.2357 17.5764C29.2357 17.6814 29.194 17.782 29.1198 17.8563C29.0455 17.9305 28.9449 17.9722 28.8399 17.9722Z" fill="white"/>
<path d="M27.2095 22.0885C27.1452 22.0885 27.0818 22.0727 27.025 22.0426L24.9712 20.9581C24.8784 20.9091 24.8088 20.8252 24.7779 20.7249C24.7469 20.6246 24.757 20.5162 24.806 20.4233C24.8551 20.3305 24.9389 20.261 25.0392 20.23C25.1395 20.1991 25.248 20.2092 25.3408 20.2582L27.3946 21.3427C27.4728 21.384 27.5349 21.4503 27.571 21.531C27.6071 21.6117 27.6151 21.7022 27.5938 21.788C27.5725 21.8738 27.5231 21.9501 27.4534 22.0045C27.3838 22.059 27.2979 22.0885 27.2095 22.0885Z" fill="white"/>
<path d="M26.183 14.6432C26.0928 14.6432 26.0053 14.6124 25.935 14.5559C25.8647 14.4994 25.8158 14.4206 25.7964 14.3325C25.777 14.2444 25.7882 14.1523 25.8283 14.0715C25.8684 13.9907 25.9349 13.926 26.0167 13.8882L28.0603 12.9433C28.1556 12.8992 28.2644 12.8948 28.3629 12.931C28.4614 12.9673 28.5415 13.0411 28.5856 13.1364C28.6296 13.2317 28.634 13.3405 28.5978 13.4391C28.5616 13.5376 28.4877 13.6177 28.3924 13.6617L26.3489 14.6066C26.2969 14.6307 26.2403 14.6432 26.183 14.6432Z" fill="white"/>
<path d="M10.9542 21.8683C10.8657 21.8683 10.7798 21.8387 10.7102 21.7843C10.6405 21.7298 10.5911 21.6536 10.5698 21.5678C10.5485 21.482 10.5565 21.3915 10.5926 21.3108C10.6287 21.2301 10.6908 21.1638 10.769 21.1225L12.8229 20.038C12.9157 19.989 13.0242 19.9788 13.1245 20.0098C13.2248 20.0408 13.3086 20.1103 13.3577 20.2031C13.4067 20.2959 13.4168 20.4044 13.3858 20.5047C13.3549 20.605 13.2854 20.6889 13.1926 20.7379L11.1387 21.8224C11.0818 21.8525 11.0185 21.8683 10.9542 21.8683Z" fill="white"/>
<path d="M11.9806 14.4225C11.9233 14.4225 11.8667 14.41 11.8147 14.3859L9.77118 13.441C9.72401 13.4192 9.68159 13.3883 9.64635 13.3501C9.61112 13.3119 9.58373 13.2671 9.56579 13.2184C9.54786 13.1696 9.53973 13.1177 9.54183 13.0658C9.54392 13.0139 9.55621 12.9629 9.57802 12.9157C9.59982 12.8685 9.63071 12.8261 9.66892 12.7909C9.70712 12.7556 9.75191 12.7283 9.80069 12.7103C9.84947 12.6924 9.90127 12.6843 9.9532 12.6864C10.0051 12.6885 10.0562 12.7008 10.1033 12.7226L12.1469 13.6674C12.2288 13.7053 12.2952 13.77 12.3353 13.8508C12.3753 13.9317 12.3867 14.0237 12.3672 14.1118C12.3478 14.1999 12.2989 14.2787 12.2286 14.3352C12.1583 14.3917 12.0708 14.4225 11.9806 14.4225Z" fill="white"/>
<path d="M49.2132 13.5845C49.2132 14.5438 48.8321 15.4638 48.1538 16.1421C47.4755 16.8204 46.5555 17.2015 45.5962 17.2015C46.5555 17.2015 47.4755 17.5825 48.1538 18.2609C48.8321 18.9392 49.2132 19.8592 49.2132 20.8185C49.2132 19.8592 49.5943 18.9392 50.2726 18.2609C50.9509 17.5825 51.8709 17.2015 52.8302 17.2015C51.8709 17.2015 50.9509 16.8204 50.2726 16.1421C49.5943 15.4638 49.2132 14.5438 49.2132 13.5845Z" fill="white"/>
<path d="M49.2132 21.0648C49.1809 21.0648 49.1489 21.0584 49.119 21.0461C49.0891 21.0337 49.062 21.0156 49.0391 20.9927C49.0163 20.9699 48.9981 20.9428 48.9858 20.9129C48.9734 20.883 48.9671 20.851 48.9671 20.8187C48.9661 19.925 48.6106 19.0682 47.9786 18.4362C47.3467 17.8043 46.4899 17.4488 45.5962 17.4478C45.5309 17.4478 45.4683 17.4219 45.4222 17.3757C45.376 17.3296 45.3501 17.267 45.3501 17.2017C45.3501 17.1365 45.376 17.0739 45.4222 17.0277C45.4683 16.9816 45.5309 16.9557 45.5962 16.9557L45.6059 16.9556C46.4979 16.952 47.3522 16.5954 47.982 15.9637C48.6119 15.3321 48.966 14.4767 48.9671 13.5847C48.9673 13.5196 48.9933 13.4572 49.0394 13.4112C49.0855 13.3652 49.148 13.3394 49.2132 13.3394C49.2783 13.3394 49.3408 13.3652 49.3869 13.4112C49.433 13.4572 49.4591 13.5196 49.4593 13.5847C49.4603 14.4784 49.8157 15.3352 50.4477 15.9672C51.0796 16.5991 51.9365 16.9546 52.8302 16.9556C52.8625 16.9556 52.8945 16.962 52.9244 16.9744C52.9542 16.9867 52.9813 17.0049 53.0042 17.0277C53.027 17.0506 53.0452 17.0777 53.0575 17.1076C53.0699 17.1374 53.0762 17.1694 53.0762 17.2017C53.0762 17.234 53.0699 17.266 53.0575 17.2959C53.0452 17.3258 53.027 17.3529 53.0042 17.3757C52.9813 17.3986 52.9542 17.4167 52.9244 17.4291C52.8945 17.4414 52.8625 17.4478 52.8302 17.4478H52.8205C51.9285 17.4514 51.0742 17.8081 50.4443 18.4397C49.8145 19.0714 49.4603 19.9267 49.4593 20.8187C49.4593 20.851 49.4529 20.883 49.4405 20.9129C49.4282 20.9428 49.41 20.9699 49.3872 20.9927C49.3643 21.0156 49.3372 21.0337 49.3073 21.0461C49.2775 21.0584 49.2455 21.0648 49.2132 21.0648ZM46.9535 17.2017C47.4689 17.3965 47.9369 17.6988 48.3265 18.0884C48.7161 18.478 49.0184 18.9461 49.2132 19.4615C49.408 18.9461 49.7102 18.478 50.0998 18.0884C50.4895 17.6988 50.9575 17.3966 51.4729 17.2017C50.9575 17.0069 50.4895 16.7046 50.0998 16.315C49.7102 15.9254 49.408 15.4574 49.2132 14.942C49.0184 15.4574 48.7161 15.9254 48.3265 16.315C47.9369 16.7046 47.4689 17.0069 46.9535 17.2017Z" fill="white"/>
<path d="M52.7235 21.4915C53.2402 21.4915 53.659 21.0727 53.659 20.556C53.659 20.0394 53.2402 19.6206 52.7235 19.6206C52.2069 19.6206 51.7881 20.0394 51.7881 20.556C51.7881 21.0727 52.2069 21.4915 52.7235 21.4915Z" fill="white"/>
<defs>
<linearGradient id="paint0_linear_98_349" x1="35.3459" y1="7.68091" x2="63.4922" y2="64.2366" gradientUnits="userSpaceOnUse">
<stop stop-color="#FA76FF"/>
<stop offset="0.00607" stop-color="#F876FF"/>
<stop offset="0.09508" stop-color="#DD75FA"/>
<stop offset="0.18589" stop-color="#CA74F6"/>
<stop offset="0.27882" stop-color="#BF73F4"/>
<stop offset="0.37709" stop-color="#BB73F3"/>
<stop offset="0.57069" stop-color="#A55DEB"/>
<stop offset="0.83831" stop-color="#8B43E2"/>
<stop offset="1" stop-color="#823ADF"/>
</linearGradient>
</defs>
</svg>
