<svg width="66" height="52" viewBox="0 0 66 52" fill="none" xmlns="http://www.w3.org/2000/svg">
<path d="M64.6049 18.8388L32.5608 0.337785C31.1739 -0.46262 29.4414 0.538364 29.4414 2.13918L29.4414 39.1412C29.4414 40.742 31.1739 41.743 32.5608 40.9426L64.6049 22.4416C65.9898 21.6412 65.9898 19.6392 64.6049 18.8388Z" fill="#F44C75"/>
<path d="M45.1299 24.7788C45.1299 25.26 44.687 25.6223 44.2476 25.4316C42.6375 24.7328 41.5097 23.1193 41.5097 21.2455C41.5097 19.3717 42.6375 17.7583 44.2476 17.0594C44.687 16.8687 45.1299 17.231 45.1299 17.7122L45.1299 24.7788Z" fill="#8D30B9"/>
<path d="M48.4742 24.5995C48.4307 23.8285 49.0374 23.2421 49.8293 23.2898C50.6212 23.3375 51.2985 24.0013 51.3421 24.7723C51.3856 25.5434 50.7789 26.1298 49.987 26.0821C49.1951 26.0343 48.5178 25.3706 48.4742 24.5995Z" fill="white"/>
<path d="M48.3264 16.962C48.2829 16.191 48.8896 15.6046 49.6815 15.6523C50.4734 15.7 51.1506 16.3637 51.1942 17.1347C51.2377 17.9057 50.631 18.4921 49.8391 18.4444C49.0472 18.3967 48.37 17.733 48.3264 16.962Z" fill="white"/>
<mask id="path-5-outside-1_34_9384" maskUnits="userSpaceOnUse" x="-4.07075" y="10.3405" width="45.1783" height="45.3313" fill="black">
<rect fill="white" x="-4.07075" y="10.3405" width="45.1783" height="45.3313"/>
<path fill-rule="evenodd" clip-rule="evenodd" d="M20.8343 42.9528C20.8343 41.7373 27.5643 27.5902 30.9293 20.6686L6.70138 44.9786L7.96325 46.2447L18.0582 36.1156L20.8343 42.9528ZM8.71961 30.797C9.93101 30.797 24.0303 24.0442 30.9286 20.6678L6.70061 44.9778L5.43874 43.7117L15.5337 33.5825L8.71961 30.797Z"/>
</mask>
<path fill-rule="evenodd" clip-rule="evenodd" d="M20.8343 42.9528C20.8343 41.7373 27.5643 27.5902 30.9293 20.6686L6.70138 44.9786L7.96325 46.2447L18.0582 36.1156L20.8343 42.9528ZM8.71961 30.797C9.93101 30.797 24.0303 24.0442 30.9286 20.6678L6.70061 44.9778L5.43874 43.7117L15.5337 33.5825L8.71961 30.797Z" fill="white"/>
<path d="M30.9293 20.6686L33.3968 21.8763C33.9848 20.6666 33.6156 19.2077 32.5236 18.426C31.4316 17.6444 29.9366 17.7691 28.9881 18.7208L30.9293 20.6686ZM20.8343 42.9528L18.2919 43.9921C18.7872 45.2119 20.0738 45.9092 21.3621 45.656C22.6504 45.4028 23.5797 44.27 23.5797 42.9528L20.8343 42.9528ZM6.70138 44.9786L4.76013 43.0308C3.68801 44.1065 3.68801 45.8507 4.76013 46.9264L6.70138 44.9786ZM7.96325 46.2447L6.022 48.1926C6.53685 48.7092 7.23514 48.9994 7.96325 48.9994C8.69136 48.9994 9.38965 48.7092 9.9045 48.1926L7.96325 46.2447ZM18.0582 36.1156L20.6007 35.0763C20.2537 34.2216 19.5032 33.5981 18.6017 33.4154C17.7001 33.2328 16.7673 33.5152 16.117 34.1677L18.0582 36.1156ZM30.9286 20.6678L32.8698 22.6157C33.8183 21.664 33.9425 20.1639 33.1635 19.0681C32.3846 17.9724 30.9305 17.602 29.7249 18.192L30.9286 20.6678ZM8.71961 30.797L8.71961 28.0424C7.40687 28.0424 6.27782 28.9748 6.02547 30.2675C5.77312 31.5601 6.46808 32.8511 7.6838 33.3481L8.71961 30.797ZM6.70061 44.9778L4.75936 46.9257C5.27422 47.4423 5.9725 47.7325 6.70061 47.7325C7.42872 47.7325 8.12701 47.4423 8.64187 46.9257L6.70061 44.9778ZM5.43874 43.7117L3.49749 41.7639C2.42537 42.8396 2.42537 44.5838 3.49749 45.6595L5.43874 43.7117ZM15.5337 33.5825L17.475 35.5303C18.1253 34.8778 18.4068 33.9418 18.2247 33.0373C18.0427 32.1327 17.4213 31.3797 16.5695 31.0315L15.5337 33.5825ZM28.4619 19.4609C26.7747 22.9314 24.2424 28.2162 22.1291 32.7923C21.0738 35.0773 20.1137 37.2055 19.4139 38.8492C19.0655 39.6673 18.7691 40.3947 18.5555 40.974C18.4496 41.2609 18.3512 41.5459 18.2756 41.8056C18.2286 41.9669 18.089 42.438 18.089 42.9528L23.5797 42.9528C23.5797 43.3156 23.4926 43.5338 23.5459 43.3509C23.5705 43.2664 23.62 43.116 23.7047 42.8863C23.8722 42.4323 24.1279 41.8009 24.4631 41.0136C25.1303 39.4466 26.063 37.3775 27.1109 35.1086C29.2037 30.5769 31.719 25.3274 33.3968 21.8763L28.4619 19.4609ZM8.64263 46.9264L32.8706 22.6164L28.9881 18.7208L4.76013 43.0308L8.64263 46.9264ZM9.9045 44.2969L8.64263 43.0308L4.76013 46.9264L6.022 48.1926L9.9045 44.2969ZM16.117 34.1677L6.022 44.2969L9.9045 48.1926L19.9995 38.0634L16.117 34.1677ZM23.3768 41.9134L20.6007 35.0763L15.5158 37.1549L18.2919 43.9921L23.3768 41.9134ZM29.7249 18.192C26.2855 19.8755 21.0537 22.3993 16.5373 24.4992C14.276 25.5506 12.2139 26.4865 10.6522 27.156C9.86762 27.4923 9.23835 27.7488 8.78581 27.9169C8.55688 28.0019 8.40705 28.0516 8.32285 28.0763C8.14059 28.1297 8.35802 28.0424 8.71961 28.0424L8.71961 33.5516C9.23263 33.5516 9.70218 33.4115 9.8629 33.3644C10.1217 33.2885 10.4057 33.1898 10.6917 33.0836C11.2691 32.8692 11.9939 32.5718 12.8093 32.2223C14.4475 31.5201 16.5685 30.5568 18.8458 29.4979C23.4064 27.3774 28.6734 24.8366 32.1322 23.1436L29.7249 18.192ZM8.64187 46.9257L32.8698 22.6157L28.9873 18.72L4.75936 43.03L8.64187 46.9257ZM3.49749 45.6595L4.75936 46.9257L8.64187 43.03L7.38 41.7639L3.49749 45.6595ZM13.5925 31.6347L3.49749 41.7639L7.37999 45.6595L17.475 35.5303L13.5925 31.6347ZM7.6838 33.3481L14.4979 36.1336L16.5695 31.0315L9.75542 28.2459L7.6838 33.3481Z" fill="#8D30B9" mask="url(#path-5-outside-1_34_9384)"/>
</svg>
