<svg width="17" height="17" viewBox="0 0 17 17" fill="none" xmlns="http://www.w3.org/2000/svg">
<path d="M7.66725 0.831175C7.99499 0.121226 9.00404 0.121226 9.33178 0.831175L11.1059 4.67424C11.2395 4.96362 11.5138 5.16284 11.8303 5.20033L16.0352 5.69848C16.8122 5.79053 17.1242 6.75104 16.5495 7.28204L13.4417 10.1537C13.2074 10.3701 13.1025 10.6928 13.1647 11.0057L13.9898 15.1549C14.1424 15.922 13.326 16.5155 12.6433 16.1337L8.94697 14.0663C8.66893 13.9108 8.33009 13.9108 8.05206 14.0663L4.35569 16.1337C3.67307 16.5155 2.85663 15.922 3.00918 15.1549L3.83429 11.0057C3.89651 10.6928 3.79161 10.3701 3.55733 10.1537L0.449541 7.28204C-0.125129 6.75104 0.186792 5.79053 0.963795 5.69848L5.16873 5.20033C5.48524 5.16284 5.75956 4.96362 5.89315 4.67424L7.66725 0.831175Z" fill="white"/>
</svg>
